<svg xmlns="http://www.w3.org/2000/svg" xmlns:xlink="http://www.w3.org/1999/xlink" contentStyleType="text/css" data-diagram-type="TIMING" height="110px" preserveAspectRatio="none" style="width:5106px;height:110px;" version="1.1" viewBox="0 0 5106 110" width="5106px" zoomAndPan="magnify"><?plantuml 1.2026.6?><defs/><g><line style="stroke:#333333;stroke-width:0.5;" x1="20" x2="20" y1="20" y2="76.2969"/><line style="stroke:#333333;stroke-width:0.5;" x1="5080" x2="5080" y1="20" y2="76.2969"/><line style="stroke:#333333;stroke-width:0.5;stroke-dasharray:3,5;" x1="25" x2="25" y1="20" y2="76.2969"/><line style="stroke:#333333;stroke-width:0.5;stroke-dasharray:3,5;" x1="75" x2="75" y1="20" y2="76.2969"/><line style="stroke:#333333;stroke-width:0.5;stroke-dasharray:3,5;" x1="125" x2="125" y1="20" y2="76.2969"/><line style="stroke:#333333;stroke-width:0.5;stroke-dasharray:3,5;" x1="175" x2="175" y1="20" y2="76.2969"/><line style="stroke:#333333;stroke-width:0.5;stroke-dasharray:3,5;" x1="225" x2="225" y1="20" y2="76.2969"/><line style="stroke:#333333;stroke-width:0.5;stroke-dasharray:3,5;" x1="275" x2="275" y1="20" y2="76.2969"/><line style="stroke:#333333;stroke-width:0.5;stroke-dasharray:3,5;" x1="325" x2="325" y1="20" y2="76.2969"/><line style="stroke:#333333;stroke-width:0.5;stroke-dasharray:3,5;" x1="375" x2="375" y1="20" y2="76.2969"/><line style="stroke:#333333;stroke-width:0.5;stroke-dasharray:3,5;" x1="425" x2="425" y1="20" y2="76.2969"/><line style="stroke:#333333;stroke-width:0.5;stroke-dasharray:3,5;" x1="475" x2="475" y1="20" y2="76.2969"/><line style="stroke:#333333;stroke-width:0.5;stroke-dasharray:3,5;" x1="525" x2="525" y1="20" y2="76.2969"/><line style="stroke:#333333;stroke-width:0.5;stroke-dasharray:3,5;" x1="575" x2="575" y1="20" y2="76.2969"/><line style="stroke:#333333;stroke-width:0.5;stroke-dasharray:3,5;" x1="625" x2="625" y1="20" y2="76.2969"/><line style="stroke:#333333;stroke-width:0.5;stroke-dasharray:3,5;" x1="675" x2="675" y1="20" y2="76.2969"/><line style="stroke:#333333;stroke-width:0.5;stroke-dasharray:3,5;" x1="725" x2="725" y1="20" y2="76.2969"/><line style="stroke:#333333;stroke-width:0.5;stroke-dasharray:3,5;" x1="775" x2="775" y1="20" y2="76.2969"/><line style="stroke:#333333;stroke-width:0.5;stroke-dasharray:3,5;" x1="825" x2="825" y1="20" y2="76.2969"/><line style="stroke:#333333;stroke-width:0.5;stroke-dasharray:3,5;" x1="875" x2="875" y1="20" y2="76.2969"/><line style="stroke:#333333;stroke-width:0.5;stroke-dasharray:3,5;" x1="925" x2="925" y1="20" y2="76.2969"/><line style="stroke:#333333;stroke-width:0.5;stroke-dasharray:3,5;" x1="975" x2="975" y1="20" y2="76.2969"/><line style="stroke:#333333;stroke-width:0.5;stroke-dasharray:3,5;" x1="1025" x2="1025" y1="20" y2="76.2969"/><line style="stroke:#333333;stroke-width:0.5;stroke-dasharray:3,5;" x1="1075" x2="1075" y1="20" y2="76.2969"/><line style="stroke:#333333;stroke-width:0.5;stroke-dasharray:3,5;" x1="1125" x2="1125" y1="20" y2="76.2969"/><line style="stroke:#333333;stroke-width:0.5;stroke-dasharray:3,5;" x1="1175" x2="1175" y1="20" y2="76.2969"/><line style="stroke:#333333;stroke-width:0.5;stroke-dasharray:3,5;" x1="1225" x2="1225" y1="20" y2="76.2969"/><line style="stroke:#333333;stroke-width:0.5;stroke-dasharray:3,5;" x1="1275" x2="1275" y1="20" y2="76.2969"/><line style="stroke:#333333;stroke-width:0.5;stroke-dasharray:3,5;" x1="1325" x2="1325" y1="20" y2="76.2969"/><line style="stroke:#333333;stroke-width:0.5;stroke-dasharray:3,5;" x1="1375" x2="1375" y1="20" y2="76.2969"/><line style="stroke:#333333;stroke-width:0.5;stroke-dasharray:3,5;" x1="1425" x2="1425" y1="20" y2="76.2969"/><line style="stroke:#333333;stroke-width:0.5;stroke-dasharray:3,5;" x1="1475" x2="1475" y1="20" y2="76.2969"/><line style="stroke:#333333;stroke-width:0.5;stroke-dasharray:3,5;" x1="1525" x2="1525" y1="20" y2="76.2969"/><line style="stroke:#333333;stroke-width:0.5;stroke-dasharray:3,5;" x1="1575" x2="1575" y1="20" y2="76.2969"/><line style="stroke:#333333;stroke-width:0.5;stroke-dasharray:3,5;" x1="1625" x2="1625" y1="20" y2="76.2969"/><line style="stroke:#333333;stroke-width:0.5;stroke-dasharray:3,5;" x1="1675" x2="1675" y1="20" y2="76.2969"/><line style="stroke:#333333;stroke-width:0.5;stroke-dasharray:3,5;" x1="1725" x2="1725" y1="20" y2="76.2969"/><line style="stroke:#333333;stroke-width:0.5;stroke-dasharray:3,5;" x1="1775" x2="1775" y1="20" y2="76.2969"/><line style="stroke:#333333;stroke-width:0.5;stroke-dasharray:3,5;" x1="1825" x2="1825" y1="20" y2="76.2969"/><line style="stroke:#333333;stroke-width:0.5;stroke-dasharray:3,5;" x1="1875" x2="1875" y1="20" y2="76.2969"/><line style="stroke:#333333;stroke-width:0.5;stroke-dasharray:3,5;" x1="1925" x2="1925" y1="20" y2="76.2969"/><line style="stroke:#333333;stroke-width:0.5;stroke-dasharray:3,5;" x1="1975" x2="1975" y1="20" y2="76.2969"/><line style="stroke:#333333;stroke-width:0.5;stroke-dasharray:3,5;" x1="2025" x2="2025" y1="20" y2="76.2969"/><line style="stroke:#333333;stroke-width:0.5;stroke-dasharray:3,5;" x1="2075" x2="2075" y1="20" y2="76.2969"/><line style="stroke:#333333;stroke-width:0.5;stroke-dasharray:3,5;" x1="2125" x2="2125" y1="20" y2="76.2969"/><line style="stroke:#333333;stroke-width:0.5;stroke-dasharray:3,5;" x1="2175" x2="2175" y1="20" y2="76.2969"/><line style="stroke:#333333;stroke-width:0.5;stroke-dasharray:3,5;" x1="2225" x2="2225" y1="20" y2="76.2969"/><line style="stroke:#333333;stroke-width:0.5;stroke-dasharray:3,5;" x1="2275" x2="2275" y1="20" y2="76.2969"/><line style="stroke:#333333;stroke-width:0.5;stroke-dasharray:3,5;" x1="2325" x2="2325" y1="20" y2="76.2969"/><line style="stroke:#333333;stroke-width:0.5;stroke-dasharray:3,5;" x1="2375" x2="2375" y1="20" y2="76.2969"/><line style="stroke:#333333;stroke-width:0.5;stroke-dasharray:3,5;" x1="2425" x2="2425" y1="20" y2="76.2969"/><line style="stroke:#333333;stroke-width:0.5;stroke-dasharray:3,5;" x1="2475" x2="2475" y1="20" y2="76.2969"/><line style="stroke:#333333;stroke-width:0.5;stroke-dasharray:3,5;" x1="2525" x2="2525" y1="20" y2="76.2969"/><line style="stroke:#333333;stroke-width:0.5;stroke-dasharray:3,5;" x1="2575" x2="2575" y1="20" y2="76.2969"/><line style="stroke:#333333;stroke-width:0.5;stroke-dasharray:3,5;" x1="2625" x2="2625" y1="20" y2="76.2969"/><line style="stroke:#333333;stroke-width:0.5;stroke-dasharray:3,5;" x1="2675" x2="2675" y1="20" y2="76.2969"/><line style="stroke:#333333;stroke-width:0.5;stroke-dasharray:3,5;" x1="2725" x2="2725" y1="20" y2="76.2969"/><line style="stroke:#333333;stroke-width:0.5;stroke-dasharray:3,5;" x1="2775" x2="2775" y1="20" y2="76.2969"/><line style="stroke:#333333;stroke-width:0.5;stroke-dasharray:3,5;" x1="2825" x2="2825" y1="20" y2="76.2969"/><line style="stroke:#333333;stroke-width:0.5;stroke-dasharray:3,5;" x1="2875" x2="2875" y1="20" y2="76.2969"/><line style="stroke:#333333;stroke-width:0.5;stroke-dasharray:3,5;" x1="2925" x2="2925" y1="20" y2="76.2969"/><line style="stroke:#333333;stroke-width:0.5;stroke-dasharray:3,5;" x1="2975" x2="2975" y1="20" y2="76.2969"/><line style="stroke:#333333;stroke-width:0.5;stroke-dasharray:3,5;" x1="3025" x2="3025" y1="20" y2="76.2969"/><line style="stroke:#333333;stroke-width:0.5;stroke-dasharray:3,5;" x1="3075" x2="3075" y1="20" y2="76.2969"/><line style="stroke:#333333;stroke-width:0.5;stroke-dasharray:3,5;" x1="3125" x2="3125" y1="20" y2="76.2969"/><line style="stroke:#333333;stroke-width:0.5;stroke-dasharray:3,5;" x1="3175" x2="3175" y1="20" y2="76.2969"/><line style="stroke:#333333;stroke-width:0.5;stroke-dasharray:3,5;" x1="3225" x2="3225" y1="20" y2="76.2969"/><line style="stroke:#333333;stroke-width:0.5;stroke-dasharray:3,5;" x1="3275" x2="3275" y1="20" y2="76.2969"/><line style="stroke:#333333;stroke-width:0.5;stroke-dasharray:3,5;" x1="3325" x2="3325" y1="20" y2="76.2969"/><line style="stroke:#333333;stroke-width:0.5;stroke-dasharray:3,5;" x1="3375" x2="3375" y1="20" y2="76.2969"/><line style="stroke:#333333;stroke-width:0.5;stroke-dasharray:3,5;" x1="3425" x2="3425" y1="20" y2="76.2969"/><line style="stroke:#333333;stroke-width:0.5;stroke-dasharray:3,5;" x1="3475" x2="3475" y1="20" y2="76.2969"/><line style="stroke:#333333;stroke-width:0.5;stroke-dasharray:3,5;" x1="3525" x2="3525" y1="20" y2="76.2969"/><line style="stroke:#333333;stroke-width:0.5;stroke-dasharray:3,5;" x1="3575" x2="3575" y1="20" y2="76.2969"/><line style="stroke:#333333;stroke-width:0.5;stroke-dasharray:3,5;" x1="3625" x2="3625" y1="20" y2="76.2969"/><line style="stroke:#333333;stroke-width:0.5;stroke-dasharray:3,5;" x1="3675" x2="3675" y1="20" y2="76.2969"/><line style="stroke:#333333;stroke-width:0.5;stroke-dasharray:3,5;" x1="3725" x2="3725" y1="20" y2="76.2969"/><line style="stroke:#333333;stroke-width:0.5;stroke-dasharray:3,5;" x1="3775" x2="3775" y1="20" y2="76.2969"/><line style="stroke:#333333;stroke-width:0.5;stroke-dasharray:3,5;" x1="3825" x2="3825" y1="20" y2="76.2969"/><line style="stroke:#333333;stroke-width:0.5;stroke-dasharray:3,5;" x1="3875" x2="3875" y1="20" y2="76.2969"/><line style="stroke:#333333;stroke-width:0.5;stroke-dasharray:3,5;" x1="3925" x2="3925" y1="20" y2="76.2969"/><line style="stroke:#333333;stroke-width:0.5;stroke-dasharray:3,5;" x1="3975" x2="3975" y1="20" y2="76.2969"/><line style="stroke:#333333;stroke-width:0.5;stroke-dasharray:3,5;" x1="4025" x2="4025" y1="20" y2="76.2969"/><line style="stroke:#333333;stroke-width:0.5;stroke-dasharray:3,5;" x1="4075" x2="4075" y1="20" y2="76.2969"/><line style="stroke:#333333;stroke-width:0.5;stroke-dasharray:3,5;" x1="4125" x2="4125" y1="20" y2="76.2969"/><line style="stroke:#333333;stroke-width:0.5;stroke-dasharray:3,5;" x1="4175" x2="4175" y1="20" y2="76.2969"/><line style="stroke:#333333;stroke-width:0.5;stroke-dasharray:3,5;" x1="4225" x2="4225" y1="20" y2="76.2969"/><line style="stroke:#333333;stroke-width:0.5;stroke-dasharray:3,5;" x1="4275" x2="4275" y1="20" y2="76.2969"/><line style="stroke:#333333;stroke-width:0.5;stroke-dasharray:3,5;" x1="4325" x2="4325" y1="20" y2="76.2969"/><line style="stroke:#333333;stroke-width:0.5;stroke-dasharray:3,5;" x1="4375" x2="4375" y1="20" y2="76.2969"/><line style="stroke:#333333;stroke-width:0.5;stroke-dasharray:3,5;" x1="4425" x2="4425" y1="20" y2="76.2969"/><line style="stroke:#333333;stroke-width:0.5;stroke-dasharray:3,5;" x1="4475" x2="4475" y1="20" y2="76.2969"/><line style="stroke:#333333;stroke-width:0.5;stroke-dasharray:3,5;" x1="4525" x2="4525" y1="20" y2="76.2969"/><line style="stroke:#333333;stroke-width:0.5;stroke-dasharray:3,5;" x1="4575" x2="4575" y1="20" y2="76.2969"/><line style="stroke:#333333;stroke-width:0.5;stroke-dasharray:3,5;" x1="4625" x2="4625" y1="20" y2="76.2969"/><line style="stroke:#333333;stroke-width:0.5;stroke-dasharray:3,5;" x1="4675" x2="4675" y1="20" y2="76.2969"/><line style="stroke:#333333;stroke-width:0.5;stroke-dasharray:3,5;" x1="4725" x2="4725" y1="20" y2="76.2969"/><line style="stroke:#333333;stroke-width:0.5;stroke-dasharray:3,5;" x1="4775" x2="4775" y1="20" y2="76.2969"/><line style="stroke:#333333;stroke-width:0.5;stroke-dasharray:3,5;" x1="4825" x2="4825" y1="20" y2="76.2969"/><line style="stroke:#333333;stroke-width:0.5;stroke-dasharray:3,5;" x1="4875" x2="4875" y1="20" y2="76.2969"/><line style="stroke:#333333;stroke-width:0.5;stroke-dasharray:3,5;" x1="4925" x2="4925" y1="20" y2="76.2969"/><line style="stroke:#333333;stroke-width:0.5;stroke-dasharray:3,5;" x1="4975" x2="4975" y1="20" y2="76.2969"/><line style="stroke:#333333;stroke-width:0.5;stroke-dasharray:3,5;" x1="5025" x2="5025" y1="20" y2="76.2969"/><line style="stroke:#333333;stroke-width:0.5;stroke-dasharray:3,5;" x1="5075" x2="5075" y1="20" y2="76.2969"/><line style="stroke:#333333;stroke-width:0.5;" x1="20" x2="5080" y1="20" y2="20"/><text fill="#1D1D1F" font-family="'Inter, sans-serif'" font-size="14" font-weight="700" lengthAdjust="spacing" textLength="70.7246" x="25" y="32.9951">CPU CM4</text><line style="stroke:#333333;stroke-width:0.5;" x1="20" x2="96.7246" y1="37.2969" y2="37.2969"/><line style="stroke:#333333;stroke-width:0.5;" x1="96.7246" x2="106.7246" y1="37.2969" y2="20"/><polygon fill="#E2E2F0" points="37,42.2969,163,42.2969,175,54.2969,163,66.2969,37,66.2969,25,54.2969" style="stroke:#006400;stroke-width:1.5;stroke-linejoin:miter;stroke-miterlimit:10;"/><polygon fill="#E2E2F0" points="187,42.2969,2513,42.2969,2525,54.2969,2513,66.2969,187,66.2969,175,54.2969" style="stroke:#006400;stroke-width:1.5;stroke-linejoin:miter;stroke-miterlimit:10;"/><polygon fill="#E2E2F0" points="2537,42.2969,2663,42.2969,2675,54.2969,2663,66.2969,2537,66.2969,2525,54.2969" style="stroke:#006400;stroke-width:1.5;stroke-linejoin:miter;stroke-miterlimit:10;"/><polygon fill="#E2E2F0" points="2687,42.2969,3763,42.2969,3775,54.2969,3763,66.2969,2687,66.2969,2675,54.2969" style="stroke:#006400;stroke-width:1.5;stroke-linejoin:miter;stroke-miterlimit:10;"/><polygon fill="#E2E2F0" points="3787,42.2969,3863,42.2969,3875,54.2969,3863,66.2969,3787,66.2969,3775,54.2969" style="stroke:#006400;stroke-width:1.5;stroke-linejoin:miter;stroke-miterlimit:10;"/><polygon fill="#E2E2F0" points="3887,42.2969,4013,42.2969,4025,54.2969,4013,66.2969,3887,66.2969,3875,54.2969" style="stroke:#006400;stroke-width:1.5;stroke-linejoin:miter;stroke-miterlimit:10;"/><polygon fill="#E2E2F0" points="4037,42.2969,5013,42.2969,5025,54.2969,5013,66.2969,4037,66.2969,4025,54.2969" style="stroke:#006400;stroke-width:1.5;stroke-linejoin:miter;stroke-miterlimit:10;"/><polygon fill="#E2E2F0" points="5037,42.2969,5075,42.2969,5075,66.2969,5037,66.2969,5025,54.2969" style="stroke:#E2E2F0;stroke-width:1.5;stroke-linejoin:miter;stroke-miterlimit:10;"/><path d="M5075,42.2969 L5037,42.2969 L5025,54.2969 L5037,66.2969 L5075,66.2969" fill="#E2E2F0" style="stroke:#006400;stroke-width:1.5;"/><text fill="#1D1D1F" font-family="'Inter, sans-serif'" font-size="12" font-weight="700" lengthAdjust="spacing" textLength="68.4961" x="65.752" y="58.4512">Heartbeat</text><text fill="#1D1D1F" font-family="'Inter, sans-serif'" font-size="12" font-weight="700" lengthAdjust="spacing" textLength="76.2422" x="1311.8789" y="58.4512">HeavyMath</text><text fill="#1D1D1F" font-family="'Inter, sans-serif'" font-size="12" font-weight="700" lengthAdjust="spacing" textLength="68.4961" x="2565.752" y="58.4512">Heartbeat</text><text fill="#1D1D1F" font-family="'Inter, sans-serif'" font-size="12" font-weight="700" lengthAdjust="spacing" textLength="76.2422" x="3186.8789" y="58.4512">HeavyMath</text><text fill="#1D1D1F" font-family="'Inter, sans-serif'" font-size="12" font-weight="700" lengthAdjust="spacing" textLength="30.0996" x="3809.9502" y="58.4512">EXTI</text><text fill="#1D1D1F" font-family="'Inter, sans-serif'" font-size="12" font-weight="700" lengthAdjust="spacing" textLength="74.9648" x="3912.5176" y="58.4512">Emergency</text><text fill="#1D1D1F" font-family="'Inter, sans-serif'" font-size="12" font-weight="700" lengthAdjust="spacing" textLength="76.2422" x="4486.8789" y="58.4512">HeavyMath</text><text fill="#1D1D1F" font-family="'Inter, sans-serif'" font-size="12" font-weight="700" lengthAdjust="spacing" textLength="68.4961" x="5037" y="58.4512">Heartbeat</text><line style="stroke:#333333;stroke-width:2;" x1="25" x2="25" y1="76.2969" y2="81.2969"/><line style="stroke:#333333;stroke-width:2;" x1="75" x2="75" y1="76.2969" y2="81.2969"/><line style="stroke:#333333;stroke-width:2;" x1="125" x2="125" y1="76.2969" y2="81.2969"/><line style="stroke:#333333;stroke-width:2;" x1="175" x2="175" y1="76.2969" y2="81.2969"/><line style="stroke:#333333;stroke-width:2;" x1="225" x2="225" y1="76.2969" y2="81.2969"/><line style="stroke:#333333;stroke-width:2;" x1="275" x2="275" y1="76.2969" y2="81.2969"/><line style="stroke:#333333;stroke-width:2;" x1="325" x2="325" y1="76.2969" y2="81.2969"/><line style="stroke:#333333;stroke-width:2;" x1="375" x2="375" y1="76.2969" y2="81.2969"/><line style="stroke:#333333;stroke-width:2;" x1="425" x2="425" y1="76.2969" y2="81.2969"/><line style="stroke:#333333;stroke-width:2;" x1="475" x2="475" y1="76.2969" y2="81.2969"/><line style="stroke:#333333;stroke-width:2;" x1="525" x2="525" y1="76.2969" y2="81.2969"/><line style="stroke:#333333;stroke-width:2;" x1="575" x2="575" y1="76.2969" y2="81.2969"/><line style="stroke:#333333;stroke-width:2;" x1="625" x2="625" y1="76.2969" y2="81.2969"/><line style="stroke:#333333;stroke-width:2;" x1="675" x2="675" y1="76.2969" y2="81.2969"/><line style="stroke:#333333;stroke-width:2;" x1="725" x2="725" y1="76.2969" y2="81.2969"/><line style="stroke:#333333;stroke-width:2;" x1="775" x2="775" y1="76.2969" y2="81.2969"/><line style="stroke:#333333;stroke-width:2;" x1="825" x2="825" y1="76.2969" y2="81.2969"/><line style="stroke:#333333;stroke-width:2;" x1="875" x2="875" y1="76.2969" y2="81.2969"/><line style="stroke:#333333;stroke-width:2;" x1="925" x2="925" y1="76.2969" y2="81.2969"/><line style="stroke:#333333;stroke-width:2;" x1="975" x2="975" y1="76.2969" y2="81.2969"/><line style="stroke:#333333;stroke-width:2;" x1="1025" x2="1025" y1="76.2969" y2="81.2969"/><line style="stroke:#333333;stroke-width:2;" x1="1075" x2="1075" y1="76.2969" y2="81.2969"/><line style="stroke:#333333;stroke-width:2;" x1="1125" x2="1125" y1="76.2969" y2="81.2969"/><line style="stroke:#333333;stroke-width:2;" x1="1175" x2="1175" y1="76.2969" y2="81.2969"/><line style="stroke:#333333;stroke-width:2;" x1="1225" x2="1225" y1="76.2969" y2="81.2969"/><line style="stroke:#333333;stroke-width:2;" x1="1275" x2="1275" y1="76.2969" y2="81.2969"/><line style="stroke:#333333;stroke-width:2;" x1="1325" x2="1325" y1="76.2969" y2="81.2969"/><line style="stroke:#333333;stroke-width:2;" x1="1375" x2="1375" y1="76.2969" y2="81.2969"/><line style="stroke:#333333;stroke-width:2;" x1="1425" x2="1425" y1="76.2969" y2="81.2969"/><line style="stroke:#333333;stroke-width:2;" x1="1475" x2="1475" y1="76.2969" y2="81.2969"/><line style="stroke:#333333;stroke-width:2;" x1="1525" x2="1525" y1="76.2969" y2="81.2969"/><line style="stroke:#333333;stroke-width:2;" x1="1575" x2="1575" y1="76.2969" y2="81.2969"/><line style="stroke:#333333;stroke-width:2;" x1="1625" x2="1625" y1="76.2969" y2="81.2969"/><line style="stroke:#333333;stroke-width:2;" x1="1675" x2="1675" y1="76.2969" y2="81.2969"/><line style="stroke:#333333;stroke-width:2;" x1="1725" x2="1725" y1="76.2969" y2="81.2969"/><line style="stroke:#333333;stroke-width:2;" x1="1775" x2="1775" y1="76.2969" y2="81.2969"/><line style="stroke:#333333;stroke-width:2;" x1="1825" x2="1825" y1="76.2969" y2="81.2969"/><line style="stroke:#333333;stroke-width:2;" x1="1875" x2="1875" y1="76.2969" y2="81.2969"/><line style="stroke:#333333;stroke-width:2;" x1="1925" x2="1925" y1="76.2969" y2="81.2969"/><line style="stroke:#333333;stroke-width:2;" x1="1975" x2="1975" y1="76.2969" y2="81.2969"/><line style="stroke:#333333;stroke-width:2;" x1="2025" x2="2025" y1="76.2969" y2="81.2969"/><line style="stroke:#333333;stroke-width:2;" x1="2075" x2="2075" y1="76.2969" y2="81.2969"/><line style="stroke:#333333;stroke-width:2;" x1="2125" x2="2125" y1="76.2969" y2="81.2969"/><line style="stroke:#333333;stroke-width:2;" x1="2175" x2="2175" y1="76.2969" y2="81.2969"/><line style="stroke:#333333;stroke-width:2;" x1="2225" x2="2225" y1="76.2969" y2="81.2969"/><line style="stroke:#333333;stroke-width:2;" x1="2275" x2="2275" y1="76.2969" y2="81.2969"/><line style="stroke:#333333;stroke-width:2;" x1="2325" x2="2325" y1="76.2969" y2="81.2969"/><line style="stroke:#333333;stroke-width:2;" x1="2375" x2="2375" y1="76.2969" y2="81.2969"/><line style="stroke:#333333;stroke-width:2;" x1="2425" x2="2425" y1="76.2969" y2="81.2969"/><line style="stroke:#333333;stroke-width:2;" x1="2475" x2="2475" y1="76.2969" y2="81.2969"/><line style="stroke:#333333;stroke-width:2;" x1="2525" x2="2525" y1="76.2969" y2="81.2969"/><line style="stroke:#333333;stroke-width:2;" x1="2575" x2="2575" y1="76.2969" y2="81.2969"/><line style="stroke:#333333;stroke-width:2;" x1="2625" x2="2625" y1="76.2969" y2="81.2969"/><line style="stroke:#333333;stroke-width:2;" x1="2675" x2="2675" y1="76.2969" y2="81.2969"/><line style="stroke:#333333;stroke-width:2;" x1="2725" x2="2725" y1="76.2969" y2="81.2969"/><line style="stroke:#333333;stroke-width:2;" x1="2775" x2="2775" y1="76.2969" y2="81.2969"/><line style="stroke:#333333;stroke-width:2;" x1="2825" x2="2825" y1="76.2969" y2="81.2969"/><line style="stroke:#333333;stroke-width:2;" x1="2875" x2="2875" y1="76.2969" y2="81.2969"/><line style="stroke:#333333;stroke-width:2;" x1="2925" x2="2925" y1="76.2969" y2="81.2969"/><line style="stroke:#333333;stroke-width:2;" x1="2975" x2="2975" y1="76.2969" y2="81.2969"/><line style="stroke:#333333;stroke-width:2;" x1="3025" x2="3025" y1="76.2969" y2="81.2969"/><line style="stroke:#333333;stroke-width:2;" x1="3075" x2="3075" y1="76.2969" y2="81.2969"/><line style="stroke:#333333;stroke-width:2;" x1="3125" x2="3125" y1="76.2969" y2="81.2969"/><line style="stroke:#333333;stroke-width:2;" x1="3175" x2="3175" y1="76.2969" y2="81.2969"/><line style="stroke:#333333;stroke-width:2;" x1="3225" x2="3225" y1="76.2969" y2="81.2969"/><line style="stroke:#333333;stroke-width:2;" x1="3275" x2="3275" y1="76.2969" y2="81.2969"/><line style="stroke:#333333;stroke-width:2;" x1="3325" x2="3325" y1="76.2969" y2="81.2969"/><line style="stroke:#333333;stroke-width:2;" x1="3375" x2="3375" y1="76.2969" y2="81.2969"/><line style="stroke:#333333;stroke-width:2;" x1="3425" x2="3425" y1="76.2969" y2="81.2969"/><line style="stroke:#333333;stroke-width:2;" x1="3475" x2="3475" y1="76.2969" y2="81.2969"/><line style="stroke:#333333;stroke-width:2;" x1="3525" x2="3525" y1="76.2969" y2="81.2969"/><line style="stroke:#333333;stroke-width:2;" x1="3575" x2="3575" y1="76.2969" y2="81.2969"/><line style="stroke:#333333;stroke-width:2;" x1="3625" x2="3625" y1="76.2969" y2="81.2969"/><line style="stroke:#333333;stroke-width:2;" x1="3675" x2="3675" y1="76.2969" y2="81.2969"/><line style="stroke:#333333;stroke-width:2;" x1="3725" x2="3725" y1="76.2969" y2="81.2969"/><line style="stroke:#333333;stroke-width:2;" x1="3775" x2="3775" y1="76.2969" y2="81.2969"/><line style="stroke:#333333;stroke-width:2;" x1="3825" x2="3825" y1="76.2969" y2="81.2969"/><line style="stroke:#333333;stroke-width:2;" x1="3875" x2="3875" y1="76.2969" y2="81.2969"/><line style="stroke:#333333;stroke-width:2;" x1="3925" x2="3925" y1="76.2969" y2="81.2969"/><line style="stroke:#333333;stroke-width:2;" x1="3975" x2="3975" y1="76.2969" y2="81.2969"/><line style="stroke:#333333;stroke-width:2;" x1="4025" x2="4025" y1="76.2969" y2="81.2969"/><line style="stroke:#333333;stroke-width:2;" x1="4075" x2="4075" y1="76.2969" y2="81.2969"/><line style="stroke:#333333;stroke-width:2;" x1="4125" x2="4125" y1="76.2969" y2="81.2969"/><line style="stroke:#333333;stroke-width:2;" x1="4175" x2="4175" y1="76.2969" y2="81.2969"/><line style="stroke:#333333;stroke-width:2;" x1="4225" x2="4225" y1="76.2969" y2="81.2969"/><line style="stroke:#333333;stroke-width:2;" x1="4275" x2="4275" y1="76.2969" y2="81.2969"/><line style="stroke:#333333;stroke-width:2;" x1="4325" x2="4325" y1="76.2969" y2="81.2969"/><line style="stroke:#333333;stroke-width:2;" x1="4375" x2="4375" y1="76.2969" y2="81.2969"/><line style="stroke:#333333;stroke-width:2;" x1="4425" x2="4425" y1="76.2969" y2="81.2969"/><line style="stroke:#333333;stroke-width:2;" x1="4475" x2="4475" y1="76.2969" y2="81.2969"/><line style="stroke:#333333;stroke-width:2;" x1="4525" x2="4525" y1="76.2969" y2="81.2969"/><line style="stroke:#333333;stroke-width:2;" x1="4575" x2="4575" y1="76.2969" y2="81.2969"/><line style="stroke:#333333;stroke-width:2;" x1="4625" x2="4625" y1="76.2969" y2="81.2969"/><line style="stroke:#333333;stroke-width:2;" x1="4675" x2="4675" y1="76.2969" y2="81.2969"/><line style="stroke:#333333;stroke-width:2;" x1="4725" x2="4725" y1="76.2969" y2="81.2969"/><line style="stroke:#333333;stroke-width:2;" x1="4775" x2="4775" y1="76.2969" y2="81.2969"/><line style="stroke:#333333;stroke-width:2;" x1="4825" x2="4825" y1="76.2969" y2="81.2969"/><line style="stroke:#333333;stroke-width:2;" x1="4875" x2="4875" y1="76.2969" y2="81.2969"/><line style="stroke:#333333;stroke-width:2;" x1="4925" x2="4925" y1="76.2969" y2="81.2969"/><line style="stroke:#333333;stroke-width:2;" x1="4975" x2="4975" y1="76.2969" y2="81.2969"/><line style="stroke:#333333;stroke-width:2;" x1="5025" x2="5025" y1="76.2969" y2="81.2969"/><line style="stroke:#333333;stroke-width:2;" x1="5075" x2="5075" y1="76.2969" y2="81.2969"/><line style="stroke:#333333;stroke-width:2;" x1="25" x2="5075" y1="76.2969" y2="76.2969"/><text fill="#1D1D1F" font-family="'Inter, sans-serif'" font-size="11" lengthAdjust="spacing" textLength="6.9985" x="21.5007" y="92.5073">0</text><text fill="#1D1D1F" font-family="'Inter, sans-serif'" font-size="11" lengthAdjust="spacing" textLength="13.9971" x="168.0015" y="92.5073">30</text><text fill="#1D1D1F" font-family="'Inter, sans-serif'" font-size="11" lengthAdjust="spacing" textLength="20.9956" x="2514.5022" y="92.5073">500</text><text fill="#1D1D1F" font-family="'Inter, sans-serif'" font-size="11" lengthAdjust="spacing" textLength="20.9956" x="2664.5022" y="92.5073">530</text><text fill="#1D1D1F" font-family="'Inter, sans-serif'" font-size="11" lengthAdjust="spacing" textLength="20.9956" x="3764.5022" y="92.5073">750</text><text fill="#1D1D1F" font-family="'Inter, sans-serif'" font-size="11" lengthAdjust="spacing" textLength="20.9956" x="3864.5022" y="92.5073">770</text><text fill="#1D1D1F" font-family="'Inter, sans-serif'" font-size="11" lengthAdjust="spacing" textLength="20.9956" x="4014.5022" y="92.5073">800</text><text fill="#1D1D1F" font-family="'Inter, sans-serif'" font-size="11" lengthAdjust="spacing" textLength="27.9941" x="5011.0029" y="92.5073">1000</text><?plantuml-src RO_HIiCm58RlynI7xbOXLUjssQvRSU14KC7Ri_Qi2sjFv2HJXlZkPZfdbUI_2T__9ITnMyClADZ32kjjAtR7JMaxA-05sOMAs2jtiXfQuwxpbML_Xpr1ic1FSWOkoEUEnAoJkFrzwIYTXLG3fH2nRyToSXqo7PJUz8PRU5S0qt_F6rLVwz1OQKYET9w5587U6gQ_Cm4UJClO_PWNMgU5-b2rvTguy9No_WdAvLK2w23iLQxL0Ha7DuJYLuHUvPT3-BfVej-eFDCnDOkwu-n4vy-FYm36lw0dQOdhlSedEdOurP59dm00?></g></svg>