<svg xmlns="http://www.w3.org/2000/svg" xmlns:xlink="http://www.w3.org/1999/xlink" contentStyleType="text/css" data-diagram-type="TIMING" height="222px" preserveAspectRatio="none" style="width:251px;height:222px;" version="1.1" viewBox="0 0 251 222" width="251px" zoomAndPan="magnify"><?plantuml 1.2026.6?><defs/><g><line style="stroke:#333333;stroke-width:0.5;" x1="20" x2="20" y1="20" y2="188.8906"/><line style="stroke:#333333;stroke-width:0.5;" x1="230" x2="230" y1="20" y2="188.8906"/><line style="stroke:#333333;stroke-width:0.5;stroke-dasharray:3,5;" x1="25" x2="25" y1="20" y2="188.8906"/><line style="stroke:#333333;stroke-width:0.5;stroke-dasharray:3,5;" x1="75" x2="75" y1="20" y2="188.8906"/><line style="stroke:#333333;stroke-width:0.5;stroke-dasharray:3,5;" x1="125" x2="125" y1="20" y2="188.8906"/><line style="stroke:#333333;stroke-width:0.5;stroke-dasharray:3,5;" x1="175" x2="175" y1="20" y2="188.8906"/><line style="stroke:#333333;stroke-width:0.5;stroke-dasharray:3,5;" x1="225" x2="225" y1="20" y2="188.8906"/><line style="stroke:#333333;stroke-width:0.5;" x1="20" x2="230" y1="20" y2="20"/><text fill="#1D1D1F" font-family="'Inter, sans-serif'" font-size="14" font-weight="700" lengthAdjust="spacing" textLength="135.5908" x="25" y="32.9951">M7 ungeschuetzt</text><line style="stroke:#333333;stroke-width:0.5;" x1="20" x2="161.5908" y1="37.2969" y2="37.2969"/><line style="stroke:#333333;stroke-width:0.5;" x1="161.5908" x2="171.5908" y1="37.2969" y2="20"/><polygon fill="#E2E2F0" points="37,42.2969,63,42.2969,75,54.2969,63,66.2969,37,66.2969,25,54.2969" style="stroke:#006400;stroke-width:1.5;stroke-linejoin:miter;stroke-miterlimit:10;"/><polygon fill="#E2E2F0" points="87,42.2969,113,42.2969,125,54.2969,113,66.2969,87,66.2969,75,54.2969" style="stroke:#006400;stroke-width:1.5;stroke-linejoin:miter;stroke-miterlimit:10;"/><polygon fill="#E2E2F0" points="137,42.2969,225,42.2969,225,66.2969,137,66.2969,125,54.2969" style="stroke:#E2E2F0;stroke-width:1.5;stroke-linejoin:miter;stroke-miterlimit:10;"/><path d="M225,42.2969 L137,42.2969 L125,54.2969 L137,66.2969 L225,66.2969" fill="#E2E2F0" style="stroke:#006400;stroke-width:1.5;"/><text fill="#1D1D1F" font-family="'Inter, sans-serif'" font-size="12" font-weight="700" lengthAdjust="spacing" textLength="41.7715" x="29.1143" y="58.4512">liest 5</text><text fill="#1D1D1F" font-family="'Inter, sans-serif'" font-size="12" font-weight="700" lengthAdjust="spacing" textLength="35.1738" x="82.4131" y="58.4512">reg 6</text><text fill="#1D1D1F" font-family="'Inter, sans-serif'" font-size="12" font-weight="700" lengthAdjust="spacing" textLength="55.2949" x="137" y="58.4512">schreibt</text><line style="stroke:#333333;stroke-width:0.5;" x1="20" x2="230" y1="76.2969" y2="76.2969"/><text fill="#1D1D1F" font-family="'Inter, sans-serif'" font-size="14" font-weight="700" lengthAdjust="spacing" textLength="135.5908" x="25" y="89.292">M4 ungeschuetzt</text><line style="stroke:#333333;stroke-width:0.5;" x1="20" x2="161.5908" y1="93.5938" y2="93.5938"/><line style="stroke:#333333;stroke-width:0.5;" x1="161.5908" x2="171.5908" y1="93.5938" y2="76.2969"/><polygon fill="#E2E2F0" points="37,98.5938,63,98.5938,75,110.5938,63,122.5938,37,122.5938,25,110.5938" style="stroke:#006400;stroke-width:1.5;stroke-linejoin:miter;stroke-miterlimit:10;"/><polygon fill="#E2E2F0" points="87,98.5938,163,98.5938,175,110.5938,163,122.5938,87,122.5938,75,110.5938" style="stroke:#006400;stroke-width:1.5;stroke-linejoin:miter;stroke-miterlimit:10;"/><polygon fill="#E2E2F0" points="187,98.5938,225,98.5938,225,122.5938,187,122.5938,175,110.5938" style="stroke:#E2E2F0;stroke-width:1.5;stroke-linejoin:miter;stroke-miterlimit:10;"/><path d="M225,98.5938 L187,98.5938 L175,110.5938 L187,122.5938 L225,122.5938" fill="#E2E2F0" style="stroke:#006400;stroke-width:1.5;"/><text fill="#1D1D1F" font-family="'Inter, sans-serif'" font-size="12" font-weight="700" lengthAdjust="spacing" textLength="24.9551" x="37.5225" y="114.748">idle</text><text fill="#1D1D1F" font-family="'Inter, sans-serif'" font-size="12" font-weight="700" lengthAdjust="spacing" textLength="41.7715" x="104.1143" y="114.748">liest 5</text><text fill="#1D1D1F" font-family="'Inter, sans-serif'" font-size="12" font-weight="700" lengthAdjust="spacing" textLength="55.2949" x="187" y="114.748">schreibt</text><line style="stroke:#333333;stroke-width:0.5;" x1="20" x2="230" y1="132.5938" y2="132.5938"/><text fill="#1D1D1F" font-family="'Inter, sans-serif'" font-size="14" font-weight="700" lengthAdjust="spacing" textLength="45.6299" x="25" y="145.5889">SRAM</text><line style="stroke:#333333;stroke-width:0.5;" x1="20" x2="71.6299" y1="149.8906" y2="149.8906"/><line style="stroke:#333333;stroke-width:0.5;" x1="71.6299" x2="81.6299" y1="149.8906" y2="132.5938"/><polygon fill="#E2E2F0" points="37,154.8906,113,154.8906,125,166.8906,113,178.8906,37,178.8906,25,166.8906" style="stroke:#006400;stroke-width:1.5;stroke-linejoin:miter;stroke-miterlimit:10;"/><polygon fill="#E2E2F0" points="137,154.8906,163,154.8906,175,166.8906,163,178.8906,137,178.8906,125,166.8906" style="stroke:#006400;stroke-width:1.5;stroke-linejoin:miter;stroke-miterlimit:10;"/><polygon fill="#E2E2F0" points="187,154.8906,225,154.8906,225,178.8906,187,178.8906,175,166.8906" style="stroke:#E2E2F0;stroke-width:1.5;stroke-linejoin:miter;stroke-miterlimit:10;"/><path d="M225,154.8906 L187,154.8906 L175,166.8906 L187,178.8906 L225,178.8906" fill="#E2E2F0" style="stroke:#006400;stroke-width:1.5;"/><text fill="#1D1D1F" font-family="'Inter, sans-serif'" font-size="12" font-weight="700" lengthAdjust="spacing" textLength="8.3496" x="70.8252" y="171.0449">5</text><text fill="#1D1D1F" font-family="'Inter, sans-serif'" font-size="12" font-weight="700" lengthAdjust="spacing" textLength="8.3496" x="145.8252" y="171.0449">6</text><text fill="#1D1D1F" font-family="'Inter, sans-serif'" font-size="12" font-weight="700" lengthAdjust="spacing" textLength="8.3496" x="187" y="171.0449">6</text><line style="stroke:#333333;stroke-width:2;" x1="25" x2="25" y1="188.8906" y2="193.8906"/><line style="stroke:#333333;stroke-width:2;" x1="75" x2="75" y1="188.8906" y2="193.8906"/><line style="stroke:#333333;stroke-width:2;" x1="125" x2="125" y1="188.8906" y2="193.8906"/><line style="stroke:#333333;stroke-width:2;" x1="175" x2="175" y1="188.8906" y2="193.8906"/><line style="stroke:#333333;stroke-width:2;" x1="225" x2="225" y1="188.8906" y2="193.8906"/><line style="stroke:#333333;stroke-width:2;" x1="25" x2="225" y1="188.8906" y2="188.8906"/><text fill="#1D1D1F" font-family="'Inter, sans-serif'" font-size="11" lengthAdjust="spacing" textLength="6.9985" x="21.5007" y="205.1011">0</text><text fill="#1D1D1F" font-family="'Inter, sans-serif'" font-size="11" lengthAdjust="spacing" textLength="6.9985" x="71.5007" y="205.1011">1</text><text fill="#1D1D1F" font-family="'Inter, sans-serif'" font-size="11" lengthAdjust="spacing" textLength="6.9985" x="121.5007" y="205.1011">2</text><text fill="#1D1D1F" font-family="'Inter, sans-serif'" font-size="11" lengthAdjust="spacing" textLength="6.9985" x="171.5007" y="205.1011">3</text><?plantuml-src RO_1JiCm38RlUGehkuBK3ZOuDeLLGc8Sw1DahLUijSxaf482yUw4qex2Y2_9_tsE4tyWFbgn7UniTMZ4zLpVkTO91B7i8q8Eof-i6lUsRqFXE3pP3a4_S42v01_bIuz2U_s__Ntf8hsFLSmK8-9UHtYxZfNFOA2Ek85t1P3_UTwY6DONSLAZZEbc5Sl4z94OVyy4AAbXsqxcCabIepvKvRWY7x-olO6U6_JLIu_XBMYm7imCNv_Z_0UNpsOxPANA4cM0FEYMq0TOQPKFHwfRrAeSzZ7Cqb4JR60zIQUUR3dYE56GTc5gZMfsDThdx1C0?></g></svg>