<svg xmlns="http://www.w3.org/2000/svg" xmlns:xlink="http://www.w3.org/1999/xlink" contentStyleType="text/css" data-diagram-type="TIMING" height="289px" preserveAspectRatio="none" style="width:499px;height:289px;" version="1.1" viewBox="0 0 499 289" width="499px" zoomAndPan="magnify"><?plantuml 1.2026.6?><defs/><g><line style="stroke:#333333;stroke-width:0.5;" x1="20" x2="20" y1="20" y2="255.8906"/><line style="stroke:#333333;stroke-width:0.5;" x1="478.7148" x2="478.7148" y1="20" y2="255.8906"/><line style="stroke:#333333;stroke-width:0.5;stroke-dasharray:3,5;" x1="73.7148" x2="73.7148" y1="20" y2="255.8906"/><line style="stroke:#333333;stroke-width:0.5;stroke-dasharray:3,5;" x1="123.7148" x2="123.7148" y1="20" y2="255.8906"/><line style="stroke:#333333;stroke-width:0.5;stroke-dasharray:3,5;" x1="173.7148" x2="173.7148" y1="20" y2="255.8906"/><line style="stroke:#333333;stroke-width:0.5;stroke-dasharray:3,5;" x1="223.7148" x2="223.7148" y1="20" y2="255.8906"/><line style="stroke:#333333;stroke-width:0.5;stroke-dasharray:3,5;" x1="273.7148" x2="273.7148" y1="20" y2="255.8906"/><line style="stroke:#333333;stroke-width:0.5;stroke-dasharray:3,5;" x1="323.7148" x2="323.7148" y1="20" y2="255.8906"/><line style="stroke:#333333;stroke-width:0.5;stroke-dasharray:3,5;" x1="373.7148" x2="373.7148" y1="20" y2="255.8906"/><line style="stroke:#333333;stroke-width:0.5;stroke-dasharray:3,5;" x1="423.7148" x2="423.7148" y1="20" y2="255.8906"/><line style="stroke:#333333;stroke-width:0.5;stroke-dasharray:3,5;" x1="473.7148" x2="473.7148" y1="20" y2="255.8906"/><line style="stroke:#333333;stroke-width:0.5;" x1="20" x2="478.7148" y1="20" y2="20"/><text fill="#1D1D1F" font-family="'Inter, sans-serif'" font-size="14" font-weight="700" lengthAdjust="spacing" textLength="110.3047" x="25" y="32.9951">Polling-Runde</text><line style="stroke:#333333;stroke-width:0.5;" x1="20" x2="136.3047" y1="37.2969" y2="37.2969"/><line style="stroke:#333333;stroke-width:0.5;" x1="136.3047" x2="146.3047" y1="37.2969" y2="20"/><text fill="#1D1D1F" font-family="'Inter, sans-serif'" font-size="12" lengthAdjust="spacing" textLength="48.7148" x="25" y="112.4512">Eingang</text><text fill="#1D1D1F" font-family="'Inter, sans-serif'" font-size="12" lengthAdjust="spacing" textLength="38.5898" x="25" y="92.4512">Komm</text><text fill="#1D1D1F" font-family="'Inter, sans-serif'" font-size="12" lengthAdjust="spacing" textLength="44.2324" x="25" y="72.4512">Display</text><text fill="#1D1D1F" font-family="'Inter, sans-serif'" font-size="12" lengthAdjust="spacing" textLength="21.873" x="25" y="52.4512">Idle</text><line style="stroke:#006400;stroke-width:2;" x1="73.7148" x2="123.7148" y1="107.2969" y2="107.2969"/><line style="stroke:#006400;stroke-width:2;" x1="123.7148" x2="173.7148" y1="87.2969" y2="87.2969"/><line style="stroke:#006400;stroke-width:2;" x1="173.7148" x2="323.7148" y1="67.2969" y2="67.2969"/><line style="stroke:#006400;stroke-width:2;" x1="323.7148" x2="423.7148" y1="47.2969" y2="47.2969"/><line style="stroke:#006400;stroke-width:2;" x1="423.7148" x2="473.7148" y1="47.2969" y2="47.2969"/><line style="stroke:#006400;stroke-width:2;" x1="123.7148" x2="123.7148" y1="87.2969" y2="107.2969"/><line style="stroke:#006400;stroke-width:2;" x1="173.7148" x2="173.7148" y1="67.2969" y2="87.2969"/><line style="stroke:#006400;stroke-width:2;" x1="323.7148" x2="323.7148" y1="47.2969" y2="67.2969"/><line style="stroke:#006400;stroke-width:2;" x1="423.7148" x2="423.7148" y1="47.2969" y2="47.2969"/><line style="stroke:#333333;stroke-width:0.5;" x1="20" x2="478.7148" y1="125.2969" y2="125.2969"/><text fill="#1D1D1F" font-family="'Inter, sans-serif'" font-size="14" font-weight="700" lengthAdjust="spacing" textLength="100.0371" x="25" y="138.292">FB: ISR/Main</text><line style="stroke:#333333;stroke-width:0.5;" x1="20" x2="126.0371" y1="142.5938" y2="142.5938"/><line style="stroke:#333333;stroke-width:0.5;" x1="126.0371" x2="136.0371" y1="142.5938" y2="125.2969"/><text fill="#1D1D1F" font-family="'Inter, sans-serif'" font-size="12" lengthAdjust="spacing" textLength="28.6465" x="40.0684" y="177.748">Main</text><text fill="#1D1D1F" font-family="'Inter, sans-serif'" font-size="12" lengthAdjust="spacing" textLength="19.4941" x="40.0684" y="157.748">ISR</text><line style="stroke:#006400;stroke-width:2;" x1="73.7148" x2="123.7148" y1="172.5938" y2="172.5938"/><line style="stroke:#006400;stroke-width:2;" x1="123.7148" x2="173.7148" y1="152.5938" y2="152.5938"/><line style="stroke:#006400;stroke-width:2;" x1="173.7148" x2="323.7148" y1="172.5938" y2="172.5938"/><line style="stroke:#006400;stroke-width:2;" x1="323.7148" x2="423.7148" y1="172.5938" y2="172.5938"/><line style="stroke:#006400;stroke-width:2;" x1="423.7148" x2="473.7148" y1="172.5938" y2="172.5938"/><line style="stroke:#006400;stroke-width:2;" x1="123.7148" x2="123.7148" y1="152.5938" y2="172.5938"/><line style="stroke:#006400;stroke-width:2;" x1="173.7148" x2="173.7148" y1="152.5938" y2="172.5938"/><line style="stroke:#006400;stroke-width:2;" x1="323.7148" x2="323.7148" y1="172.5938" y2="172.5938"/><line style="stroke:#006400;stroke-width:2;" x1="423.7148" x2="423.7148" y1="172.5938" y2="172.5938"/><line style="stroke:#333333;stroke-width:0.5;" x1="20" x2="478.7148" y1="190.5938" y2="190.5938"/><text fill="#1D1D1F" font-family="'Inter, sans-serif'" font-size="14" font-weight="700" lengthAdjust="spacing" textLength="93.0986" x="25" y="203.5889">RTOS-Tasks</text><line style="stroke:#333333;stroke-width:0.5;" x1="20" x2="119.0986" y1="207.8906" y2="207.8906"/><line style="stroke:#333333;stroke-width:0.5;" x1="119.0986" x2="129.0986" y1="207.8906" y2="190.5938"/><text fill="#1D1D1F" font-family="'Inter, sans-serif'" font-size="12" lengthAdjust="spacing" textLength="23.8418" x="41.1348" y="243.0449">Low</text><text fill="#1D1D1F" font-family="'Inter, sans-serif'" font-size="12" lengthAdjust="spacing" textLength="27.5801" x="41.1348" y="223.0449">High</text><line style="stroke:#006400;stroke-width:2;" x1="73.7148" x2="123.7148" y1="237.8906" y2="237.8906"/><line style="stroke:#006400;stroke-width:2;" x1="123.7148" x2="173.7148" y1="217.8906" y2="217.8906"/><line style="stroke:#006400;stroke-width:2;" x1="173.7148" x2="323.7148" y1="217.8906" y2="217.8906"/><line style="stroke:#006400;stroke-width:2;" x1="323.7148" x2="423.7148" y1="237.8906" y2="237.8906"/><line style="stroke:#006400;stroke-width:2;" x1="423.7148" x2="473.7148" y1="237.8906" y2="237.8906"/><line style="stroke:#006400;stroke-width:2;" x1="123.7148" x2="123.7148" y1="217.8906" y2="237.8906"/><line style="stroke:#006400;stroke-width:2;" x1="173.7148" x2="173.7148" y1="217.8906" y2="217.8906"/><line style="stroke:#006400;stroke-width:2;" x1="323.7148" x2="323.7148" y1="217.8906" y2="237.8906"/><line style="stroke:#006400;stroke-width:2;" x1="423.7148" x2="423.7148" y1="237.8906" y2="237.8906"/><line style="stroke:#333333;stroke-width:2;" x1="73.7148" x2="73.7148" y1="255.8906" y2="260.8906"/><line style="stroke:#333333;stroke-width:2;" x1="123.7148" x2="123.7148" y1="255.8906" y2="260.8906"/><line style="stroke:#333333;stroke-width:2;" x1="173.7148" x2="173.7148" y1="255.8906" y2="260.8906"/><line style="stroke:#333333;stroke-width:2;" x1="223.7148" x2="223.7148" y1="255.8906" y2="260.8906"/><line style="stroke:#333333;stroke-width:2;" x1="273.7148" x2="273.7148" y1="255.8906" y2="260.8906"/><line style="stroke:#333333;stroke-width:2;" x1="323.7148" x2="323.7148" y1="255.8906" y2="260.8906"/><line style="stroke:#333333;stroke-width:2;" x1="373.7148" x2="373.7148" y1="255.8906" y2="260.8906"/><line style="stroke:#333333;stroke-width:2;" x1="423.7148" x2="423.7148" y1="255.8906" y2="260.8906"/><line style="stroke:#333333;stroke-width:2;" x1="473.7148" x2="473.7148" y1="255.8906" y2="260.8906"/><line style="stroke:#333333;stroke-width:2;" x1="73.7148" x2="473.7148" y1="255.8906" y2="255.8906"/><text fill="#1D1D1F" font-family="'Inter, sans-serif'" font-size="11" lengthAdjust="spacing" textLength="6.9985" x="70.2156" y="272.1011">0</text><text fill="#1D1D1F" font-family="'Inter, sans-serif'" font-size="11" lengthAdjust="spacing" textLength="6.9985" x="120.2156" y="272.1011">1</text><text fill="#1D1D1F" font-family="'Inter, sans-serif'" font-size="11" lengthAdjust="spacing" textLength="6.9985" x="170.2156" y="272.1011">2</text><text fill="#1D1D1F" font-family="'Inter, sans-serif'" font-size="11" lengthAdjust="spacing" textLength="6.9985" x="320.2156" y="272.1011">5</text><text fill="#1D1D1F" font-family="'Inter, sans-serif'" font-size="11" lengthAdjust="spacing" textLength="6.9985" x="420.2156" y="272.1011">7</text><?plantuml-src VOxHJeCm58Rl-nGdxDP5M88pNWbkZSGv2Um5EkcmeRHBMx8OuxjRA1A6nFutRRwl_pcwOk9C5AdXIDwhKib654-IImL64Q4jei8WFLW5FP666oo5sPEQWfS8GzKDQ2ilDLNivCtRhdGHR6pmI8cKafSUtj_Pn2EubuR6axqMEBHPJosf2gfwOnlQH2F3i9g94huGmD-wxhHafW9WnmIztXqWPwKW_DTS-NuGeM-4b3msse2NIixjk6LcXr0FY8PqO3X-W2JFRby94nt20yeER_doG7IbEv0XzEYZ59Y6hMqZeaIuVRG_KTRUTl9YdS0vBxAkdM3h7NzcvOSLLaxOC7tcv7DQqakXavA2q_anwt-57m00?></g></svg>