<svg xmlns="http://www.w3.org/2000/svg" xmlns:xlink="http://www.w3.org/1999/xlink" contentStyleType="text/css" data-diagram-type="TIMING" height="166px" preserveAspectRatio="none" style="width:251px;height:166px;" version="1.1" viewBox="0 0 251 166" width="251px" zoomAndPan="magnify"><?plantuml 1.2026.6?><defs/><g><line style="stroke:#333333;stroke-width:0.5;" x1="20" x2="20" y1="20" y2="132.5938"/><line style="stroke:#333333;stroke-width:0.5;" x1="230" x2="230" y1="20" y2="132.5938"/><line style="stroke:#333333;stroke-width:0.5;stroke-dasharray:3,5;" x1="25" x2="25" y1="20" y2="132.5938"/><line style="stroke:#333333;stroke-width:0.5;stroke-dasharray:3,5;" x1="75" x2="75" y1="20" y2="132.5938"/><line style="stroke:#333333;stroke-width:0.5;stroke-dasharray:3,5;" x1="125" x2="125" y1="20" y2="132.5938"/><line style="stroke:#333333;stroke-width:0.5;stroke-dasharray:3,5;" x1="175" x2="175" y1="20" y2="132.5938"/><line style="stroke:#333333;stroke-width:0.5;stroke-dasharray:3,5;" x1="225" x2="225" y1="20" y2="132.5938"/><line style="stroke:#333333;stroke-width:0.5;" x1="20" x2="230" y1="20" y2="20"/><text fill="#1D1D1F" font-family="'Inter, sans-serif'" font-size="14" font-weight="700" lengthAdjust="spacing" textLength="85.627" x="25" y="32.9951">richtig: M4</text><line style="stroke:#333333;stroke-width:0.5;" x1="20" x2="111.627" y1="37.2969" y2="37.2969"/><line style="stroke:#333333;stroke-width:0.5;" x1="111.627" x2="121.627" y1="37.2969" y2="20"/><polygon fill="#E2E2F0" points="37,42.2969,63,42.2969,75,54.2969,63,66.2969,37,66.2969,25,54.2969" style="stroke:#006400;stroke-width:1.5;stroke-linejoin:miter;stroke-miterlimit:10;"/><polygon fill="#E2E2F0" points="87,42.2969,113,42.2969,125,54.2969,113,66.2969,87,66.2969,75,54.2969" style="stroke:#006400;stroke-width:1.5;stroke-linejoin:miter;stroke-miterlimit:10;"/><polygon fill="#E2E2F0" points="137,42.2969,163,42.2969,175,54.2969,163,66.2969,137,66.2969,125,54.2969" style="stroke:#006400;stroke-width:1.5;stroke-linejoin:miter;stroke-miterlimit:10;"/><polygon fill="#E2E2F0" points="187,42.2969,225,42.2969,225,66.2969,187,66.2969,175,54.2969" style="stroke:#E2E2F0;stroke-width:1.5;stroke-linejoin:miter;stroke-miterlimit:10;"/><path d="M225,42.2969 L187,42.2969 L175,54.2969 L187,66.2969 L225,66.2969" fill="#E2E2F0" style="stroke:#006400;stroke-width:1.5;"/><text fill="#1D1D1F" font-family="'Inter, sans-serif'" font-size="12" font-weight="700" lengthAdjust="spacing" textLength="42.0352" x="28.9824" y="58.4512">scharf</text><text fill="#1D1D1F" font-family="'Inter, sans-serif'" font-size="12" font-weight="700" lengthAdjust="spacing" textLength="31.752" x="84.124" y="58.4512">fehlt</text><text fill="#1D1D1F" font-family="'Inter, sans-serif'" font-size="12" font-weight="700" lengthAdjust="spacing" textLength="31.1836" x="134.4082" y="58.4512">Wait</text><text fill="#1D1D1F" font-family="'Inter, sans-serif'" font-size="12" font-weight="700" lengthAdjust="spacing" textLength="32.4023" x="187" y="58.4512">Take</text><line style="stroke:#333333;stroke-width:0.5;" x1="20" x2="230" y1="76.2969" y2="76.2969"/><text fill="#1D1D1F" font-family="'Inter, sans-serif'" font-size="14" font-weight="700" lengthAdjust="spacing" textLength="33.8311" x="25" y="89.292">Flag</text><line style="stroke:#333333;stroke-width:0.5;" x1="20" x2="59.8311" y1="93.5938" y2="93.5938"/><line style="stroke:#333333;stroke-width:0.5;" x1="59.8311" x2="69.8311" y1="93.5938" y2="76.2969"/><polygon fill="#E2E2F0" points="37,98.5938,63,98.5938,75,110.5938,63,122.5938,37,122.5938,25,110.5938" style="stroke:#006400;stroke-width:1.5;stroke-linejoin:miter;stroke-miterlimit:10;"/><polygon fill="#E2E2F0" points="87,98.5938,225,98.5938,225,122.5938,87,122.5938,75,110.5938" style="stroke:#E2E2F0;stroke-width:1.5;stroke-linejoin:miter;stroke-miterlimit:10;"/><path d="M225,98.5938 L87,98.5938 L75,110.5938 L87,122.5938 L225,122.5938" fill="#E2E2F0" style="stroke:#006400;stroke-width:1.5;"/><text fill="#1D1D1F" font-family="'Inter, sans-serif'" font-size="12" font-weight="700" lengthAdjust="spacing" textLength="26.3086" x="36.8457" y="114.748">leer</text><text fill="#1D1D1F" font-family="'Inter, sans-serif'" font-size="12" font-weight="700" lengthAdjust="spacing" textLength="28.998" x="87" y="114.748">Flag</text><line style="stroke:#333333;stroke-width:2;" x1="25" x2="25" y1="132.5938" y2="137.5938"/><line style="stroke:#333333;stroke-width:2;" x1="75" x2="75" y1="132.5938" y2="137.5938"/><line style="stroke:#333333;stroke-width:2;" x1="125" x2="125" y1="132.5938" y2="137.5938"/><line style="stroke:#333333;stroke-width:2;" x1="175" x2="175" y1="132.5938" y2="137.5938"/><line style="stroke:#333333;stroke-width:2;" x1="225" x2="225" y1="132.5938" y2="137.5938"/><line style="stroke:#333333;stroke-width:2;" x1="25" x2="225" y1="132.5938" y2="132.5938"/><text fill="#1D1D1F" font-family="'Inter, sans-serif'" font-size="11" lengthAdjust="spacing" textLength="6.9985" x="21.5007" y="148.8042">0</text><text fill="#1D1D1F" font-family="'Inter, sans-serif'" font-size="11" lengthAdjust="spacing" textLength="6.9985" x="71.5007" y="148.8042">1</text><text fill="#1D1D1F" font-family="'Inter, sans-serif'" font-size="11" lengthAdjust="spacing" textLength="6.9985" x="121.5007" y="148.8042">2</text><text fill="#1D1D1F" font-family="'Inter, sans-serif'" font-size="11" lengthAdjust="spacing" textLength="6.9985" x="171.5007" y="148.8042">3</text><?plantuml-src RO_DJiGm38JlUGehUmMfNNw4EBKBT8LKk834sQHkQZLDa9CL1yIx4qeN5eJdvFd6JXn7zYyeEC4pcj5AsFdkAhWWa0Hzp8XyKl4xrL6FEvUQuDCzJWJwrYUI8uWvV1n9kDV_fx-MhihhhEOWKek4rmLUd6Tj3c3YYRs5DmMm-VEzLJFN9mdIaIpkpLbMdTsMFVr-4-21hKUtJwwBegpLkpB16uxv564p9BQNS7Ug0IDiVr3ZqCvUgwf2RO4Zw6W6b7nkEtUEIBIgoWNsDBYqP_EqgjOBUqBEg3fPsaSSINy0?></g></svg>