<svg xmlns="http://www.w3.org/2000/svg" xmlns:xlink="http://www.w3.org/1999/xlink" contentStyleType="text/css" data-diagram-type="TIMING" height="345px" preserveAspectRatio="none" style="width:590px;height:345px;" version="1.1" viewBox="0 0 590 345" width="590px" zoomAndPan="magnify"><?plantuml 1.2026.6?><defs/><g><line style="stroke:#333333;stroke-width:0.5;" x1="20" x2="20" y1="20" y2="312.1875"/><line style="stroke:#333333;stroke-width:0.5;" x1="529.7109" x2="529.7109" y1="20" y2="312.1875"/><line style="stroke:#333333;stroke-width:0.5;stroke-dasharray:3,5;" x1="74.7109" x2="74.7109" y1="20" y2="312.1875"/><line style="stroke:#333333;stroke-width:0.5;stroke-dasharray:3,5;" x1="124.7109" x2="124.7109" y1="20" y2="312.1875"/><line style="stroke:#333333;stroke-width:0.5;stroke-dasharray:3,5;" x1="174.7109" x2="174.7109" y1="20" y2="312.1875"/><line style="stroke:#333333;stroke-width:0.5;stroke-dasharray:3,5;" x1="224.7109" x2="224.7109" y1="20" y2="312.1875"/><line style="stroke:#333333;stroke-width:0.5;stroke-dasharray:3,5;" x1="274.7109" x2="274.7109" y1="20" y2="312.1875"/><line style="stroke:#333333;stroke-width:0.5;stroke-dasharray:3,5;" x1="324.7109" x2="324.7109" y1="20" y2="312.1875"/><line style="stroke:#333333;stroke-width:0.5;stroke-dasharray:3,5;" x1="374.7109" x2="374.7109" y1="20" y2="312.1875"/><line style="stroke:#333333;stroke-width:0.5;stroke-dasharray:3,5;" x1="424.7109" x2="424.7109" y1="20" y2="312.1875"/><line style="stroke:#333333;stroke-width:0.5;stroke-dasharray:3,5;" x1="474.7109" x2="474.7109" y1="20" y2="312.1875"/><line style="stroke:#333333;stroke-width:0.5;stroke-dasharray:3,5;" x1="524.7109" x2="524.7109" y1="20" y2="312.1875"/><line style="stroke:#333333;stroke-width:0.5;" x1="20" x2="529.7109" y1="20" y2="20"/><text fill="#1D1D1F" font-family="'Inter, sans-serif'" font-size="14" font-weight="700" lengthAdjust="spacing" textLength="107.4063" x="25" y="32.9951">Task H (High)</text><line style="stroke:#333333;stroke-width:0.5;" x1="20" x2="133.4063" y1="37.2969" y2="37.2969"/><line style="stroke:#333333;stroke-width:0.5;" x1="133.4063" x2="143.4063" y1="37.2969" y2="20"/><text fill="#1D1D1F" font-family="'Inter, sans-serif'" font-size="12" lengthAdjust="spacing" textLength="37.793" x="25" y="92.4512">Ready</text><text fill="#1D1D1F" font-family="'Inter, sans-serif'" font-size="12" lengthAdjust="spacing" textLength="49.7109" x="25" y="72.4512">Running</text><text fill="#1D1D1F" font-family="'Inter, sans-serif'" font-size="12" lengthAdjust="spacing" textLength="47.4551" x="25" y="52.4512">Blocked</text><line style="stroke:#006400;stroke-width:2;" x1="74.7109" x2="174.7109" y1="87.2969" y2="87.2969"/><line style="stroke:#006400;stroke-width:2;" x1="174.7109" x2="224.7109" y1="67.2969" y2="67.2969"/><line style="stroke:#006400;stroke-width:2;" x1="224.7109" x2="474.7109" y1="47.2969" y2="47.2969"/><line style="stroke:#006400;stroke-width:2;" x1="474.7109" x2="524.7109" y1="67.2969" y2="67.2969"/><line style="stroke:#006400;stroke-width:2;" x1="174.7109" x2="174.7109" y1="67.2969" y2="87.2969"/><line style="stroke:#006400;stroke-width:2;" x1="224.7109" x2="224.7109" y1="47.2969" y2="67.2969"/><line style="stroke:#006400;stroke-width:2;" x1="474.7109" x2="474.7109" y1="47.2969" y2="67.2969"/><text fill="#1D1D1F" font-family="'Inter, sans-serif'" font-size="12" lengthAdjust="spacing" textLength="81.7734" x="176.7109" y="64.4668">Pr&#228;emptiert L</text><text fill="#1D1D1F" font-family="'Inter, sans-serif'" font-size="12" lengthAdjust="spacing" textLength="102.3926" x="226.7109" y="44.4668">Acquire scheitert</text><line style="stroke:#333333;stroke-width:0.5;" x1="20" x2="529.7109" y1="105.2969" y2="105.2969"/><text fill="#1D1D1F" font-family="'Inter, sans-serif'" font-size="14" font-weight="700" lengthAdjust="spacing" textLength="135.9189" x="25" y="118.292">Task M (Medium)</text><line style="stroke:#333333;stroke-width:0.5;" x1="20" x2="161.9189" y1="122.5938" y2="122.5938"/><line style="stroke:#333333;stroke-width:0.5;" x1="161.9189" x2="171.9189" y1="122.5938" y2="105.2969"/><text fill="#1D1D1F" font-family="'Inter, sans-serif'" font-size="12" lengthAdjust="spacing" textLength="37.793" x="25" y="177.748">Ready</text><text fill="#1D1D1F" font-family="'Inter, sans-serif'" font-size="12" lengthAdjust="spacing" textLength="49.7109" x="25" y="157.748">Running</text><text fill="#1D1D1F" font-family="'Inter, sans-serif'" font-size="12" lengthAdjust="spacing" textLength="47.4551" x="25" y="137.748">Blocked</text><line style="stroke:#006400;stroke-width:2;" x1="74.7109" x2="274.7109" y1="172.5938" y2="172.5938"/><line style="stroke:#006400;stroke-width:2;" x1="274.7109" x2="324.7109" y1="152.5938" y2="152.5938"/><line style="stroke:#006400;stroke-width:2;" x1="324.7109" x2="424.7109" y1="152.5938" y2="152.5938"/><line style="stroke:#006400;stroke-width:2;" x1="424.7109" x2="524.7109" y1="132.5938" y2="132.5938"/><line style="stroke:#006400;stroke-width:2;" x1="274.7109" x2="274.7109" y1="152.5938" y2="172.5938"/><line style="stroke:#006400;stroke-width:2;" x1="324.7109" x2="324.7109" y1="152.5938" y2="152.5938"/><line style="stroke:#006400;stroke-width:2;" x1="424.7109" x2="424.7109" y1="132.5938" y2="152.5938"/><text fill="#1D1D1F" font-family="'Inter, sans-serif'" font-size="12" lengthAdjust="spacing" textLength="81.7734" x="276.7109" y="149.7637">Pr&#228;emptiert L</text><text fill="#1D1D1F" font-family="'Inter, sans-serif'" font-size="12" lengthAdjust="spacing" textLength="113.0273" x="326.7109" y="149.7637">Lange Berechnung</text><line style="stroke:#333333;stroke-width:0.5;" x1="20" x2="529.7109" y1="190.5938" y2="190.5938"/><text fill="#1D1D1F" font-family="'Inter, sans-serif'" font-size="14" font-weight="700" lengthAdjust="spacing" textLength="99.5791" x="25" y="203.5889">Task L (Low)</text><line style="stroke:#333333;stroke-width:0.5;" x1="20" x2="125.5791" y1="207.8906" y2="207.8906"/><line style="stroke:#333333;stroke-width:0.5;" x1="125.5791" x2="135.5791" y1="207.8906" y2="190.5938"/><text fill="#1D1D1F" font-family="'Inter, sans-serif'" font-size="12" lengthAdjust="spacing" textLength="49.7109" x="25" y="243.0449">Running</text><text fill="#1D1D1F" font-family="'Inter, sans-serif'" font-size="12" lengthAdjust="spacing" textLength="37.793" x="25" y="223.0449">Ready</text><line style="stroke:#006400;stroke-width:2;" x1="74.7109" x2="124.7109" y1="237.8906" y2="237.8906"/><line style="stroke:#006400;stroke-width:2;" x1="124.7109" x2="174.7109" y1="237.8906" y2="237.8906"/><line style="stroke:#006400;stroke-width:2;" x1="174.7109" x2="224.7109" y1="217.8906" y2="217.8906"/><line style="stroke:#006400;stroke-width:2;" x1="224.7109" x2="274.7109" y1="237.8906" y2="237.8906"/><line style="stroke:#006400;stroke-width:2;" x1="274.7109" x2="424.7109" y1="217.8906" y2="217.8906"/><line style="stroke:#006400;stroke-width:2;" x1="424.7109" x2="474.7109" y1="237.8906" y2="237.8906"/><line style="stroke:#006400;stroke-width:2;" x1="474.7109" x2="524.7109" y1="217.8906" y2="217.8906"/><line style="stroke:#006400;stroke-width:2;" x1="124.7109" x2="124.7109" y1="237.8906" y2="237.8906"/><line style="stroke:#006400;stroke-width:2;" x1="174.7109" x2="174.7109" y1="217.8906" y2="237.8906"/><line style="stroke:#006400;stroke-width:2;" x1="224.7109" x2="224.7109" y1="217.8906" y2="237.8906"/><line style="stroke:#006400;stroke-width:2;" x1="274.7109" x2="274.7109" y1="217.8906" y2="237.8906"/><line style="stroke:#006400;stroke-width:2;" x1="424.7109" x2="424.7109" y1="217.8906" y2="237.8906"/><line style="stroke:#006400;stroke-width:2;" x1="474.7109" x2="474.7109" y1="217.8906" y2="237.8906"/><text fill="#1D1D1F" font-family="'Inter, sans-serif'" font-size="12" lengthAdjust="spacing" textLength="45.6797" x="126.7109" y="235.0605">Acquire</text><text fill="#1D1D1F" font-family="'Inter, sans-serif'" font-size="12" lengthAdjust="spacing" textLength="47.4258" x="476.7109" y="215.0605">Release</text><line style="stroke:#333333;stroke-width:0.5;" x1="20" x2="529.7109" y1="255.8906" y2="255.8906"/><text fill="#1D1D1F" font-family="'Inter, sans-serif'" font-size="14" font-weight="700" lengthAdjust="spacing" textLength="105.2051" x="25" y="268.8857">Mutex Status</text><line style="stroke:#333333;stroke-width:0.5;" x1="20" x2="131.2051" y1="273.1875" y2="273.1875"/><line style="stroke:#333333;stroke-width:0.5;" x1="131.2051" x2="141.2051" y1="273.1875" y2="255.8906"/><polygon fill="#E2E2F0" points="86.7109,278.1875,112.7109,278.1875,124.7109,290.1875,112.7109,302.1875,86.7109,302.1875,74.7109,290.1875" style="stroke:#006400;stroke-width:1.5;stroke-linejoin:miter;stroke-miterlimit:10;"/><polygon fill="#E2E2F0" points="136.7109,278.1875,262.7109,278.1875,274.7109,290.1875,262.7109,302.1875,136.7109,302.1875,124.7109,290.1875" style="stroke:#006400;stroke-width:1.5;stroke-linejoin:miter;stroke-miterlimit:10;"/><polygon fill="#E2E2F0" points="286.7109,278.1875,462.7109,278.1875,474.7109,290.1875,462.7109,302.1875,286.7109,302.1875,274.7109,290.1875" style="stroke:#006400;stroke-width:1.5;stroke-linejoin:miter;stroke-miterlimit:10;"/><polygon fill="#E2E2F0" points="486.7109,278.1875,524.7109,278.1875,524.7109,302.1875,486.7109,302.1875,474.7109,290.1875" style="stroke:#E2E2F0;stroke-width:1.5;stroke-linejoin:miter;stroke-miterlimit:10;"/><path d="M524.7109,278.1875 L486.7109,278.1875 L474.7109,290.1875 L486.7109,302.1875 L524.7109,302.1875" fill="#E2E2F0" style="stroke:#006400;stroke-width:1.5;"/><text fill="#1D1D1F" font-family="'Inter, sans-serif'" font-size="12" font-weight="700" lengthAdjust="spacing" textLength="26.3672" x="86.5273" y="294.3418">Frei</text><text fill="#1D1D1F" font-family="'Inter, sans-serif'" font-size="12" font-weight="700" lengthAdjust="spacing" textLength="100.0547" x="149.6836" y="294.3418">Sperre durch L</text><text fill="#1D1D1F" font-family="'Inter, sans-serif'" font-size="12" font-weight="700" lengthAdjust="spacing" textLength="100.0547" x="324.6836" y="294.3418">Sperre durch L</text><text fill="#1D1D1F" font-family="'Inter, sans-serif'" font-size="12" font-weight="700" lengthAdjust="spacing" textLength="102.4512" x="486.7109" y="294.3418">Sperre durch H</text><line style="stroke:#333333;stroke-width:2;" x1="74.7109" x2="74.7109" y1="312.1875" y2="317.1875"/><line style="stroke:#333333;stroke-width:2;" x1="124.7109" x2="124.7109" y1="312.1875" y2="317.1875"/><line style="stroke:#333333;stroke-width:2;" x1="174.7109" x2="174.7109" y1="312.1875" y2="317.1875"/><line style="stroke:#333333;stroke-width:2;" x1="224.7109" x2="224.7109" y1="312.1875" y2="317.1875"/><line style="stroke:#333333;stroke-width:2;" x1="274.7109" x2="274.7109" y1="312.1875" y2="317.1875"/><line style="stroke:#333333;stroke-width:2;" x1="324.7109" x2="324.7109" y1="312.1875" y2="317.1875"/><line style="stroke:#333333;stroke-width:2;" x1="374.7109" x2="374.7109" y1="312.1875" y2="317.1875"/><line style="stroke:#333333;stroke-width:2;" x1="424.7109" x2="424.7109" y1="312.1875" y2="317.1875"/><line style="stroke:#333333;stroke-width:2;" x1="474.7109" x2="474.7109" y1="312.1875" y2="317.1875"/><line style="stroke:#333333;stroke-width:2;" x1="524.7109" x2="524.7109" y1="312.1875" y2="317.1875"/><line style="stroke:#333333;stroke-width:2;" x1="74.7109" x2="524.7109" y1="312.1875" y2="312.1875"/><text fill="#1D1D1F" font-family="'Inter, sans-serif'" font-size="11" lengthAdjust="spacing" textLength="6.9985" x="71.2117" y="328.3979">0</text><text fill="#1D1D1F" font-family="'Inter, sans-serif'" font-size="11" lengthAdjust="spacing" textLength="6.9985" x="121.2117" y="328.3979">1</text><text fill="#1D1D1F" font-family="'Inter, sans-serif'" font-size="11" lengthAdjust="spacing" textLength="6.9985" x="171.2117" y="328.3979">2</text><text fill="#1D1D1F" font-family="'Inter, sans-serif'" font-size="11" lengthAdjust="spacing" textLength="6.9985" x="221.2117" y="328.3979">3</text><text fill="#1D1D1F" font-family="'Inter, sans-serif'" font-size="11" lengthAdjust="spacing" textLength="6.9985" x="271.2117" y="328.3979">4</text><text fill="#1D1D1F" font-family="'Inter, sans-serif'" font-size="11" lengthAdjust="spacing" textLength="6.9985" x="321.2117" y="328.3979">5</text><text fill="#1D1D1F" font-family="'Inter, sans-serif'" font-size="11" lengthAdjust="spacing" textLength="6.9985" x="421.2117" y="328.3979">7</text><text fill="#1D1D1F" font-family="'Inter, sans-serif'" font-size="11" lengthAdjust="spacing" textLength="6.9985" x="471.2117" y="328.3979">8</text><?plantuml-src ZPBHJi8m58Rl-nGdumOJJG15Y5U0IcQo4GDSS5ksmsZOMZnjWyRuDhw9BsQP6sw0YJitRVwl__-tcTu8kUN4CrZoQ9EGiZA-LwaYCCIbTX9Am_I1Yd75RMh6Ife9pn2y9scGBa4x-4eZYPLtdlunRRGVt8mho918xGgnV-jcL14dok3eg5TZt7NJEwOKnKW5yTXrCwmGHcH29l3E04xjyc-ldB4028J4UdU0cKWaJqkoqsgrX-o3CL9BgmruSwutu4FJ5ydwmWEkOUxNnH2Q8SR2PeKSrkK0ce7Q5Lh08YKZeTrRXzRWAymCDrRdOhXWRD1YSn-4XYdo-8tDmyewoDTMIdTx5YxsEszCA3nth5sNuGw6qOiLX2Kuso8HGcmfMaEmFz8famv7dkdh4xEj4KW6Wj8n3sU3wm8VfIhQOFoR03fQet3_ZJcgo0OtvGN-4_5dqUw9Iy1bWZ12mcWjRHxLAw2YtacLVZNBMKmnHQwn_WPdE_ZUDm00?></g></svg>