<svg xmlns="http://www.w3.org/2000/svg" xmlns:xlink="http://www.w3.org/1999/xlink" contentStyleType="text/css" data-diagram-type="TIMING" height="166px" preserveAspectRatio="none" style="width:201px;height:166px;" version="1.1" viewBox="0 0 201 166" width="201px" zoomAndPan="magnify"><?plantuml 1.2026.6?><defs/><g><line style="stroke:#333333;stroke-width:0.5;" x1="20" x2="20" y1="20" y2="132.5938"/><line style="stroke:#333333;stroke-width:0.5;" x1="180" x2="180" y1="20" y2="132.5938"/><line style="stroke:#333333;stroke-width:0.5;stroke-dasharray:3,5;" x1="25" x2="25" y1="20" y2="132.5938"/><line style="stroke:#333333;stroke-width:0.5;stroke-dasharray:3,5;" x1="75" x2="75" y1="20" y2="132.5938"/><line style="stroke:#333333;stroke-width:0.5;stroke-dasharray:3,5;" x1="125" x2="125" y1="20" y2="132.5938"/><line style="stroke:#333333;stroke-width:0.5;stroke-dasharray:3,5;" x1="175" x2="175" y1="20" y2="132.5938"/><line style="stroke:#333333;stroke-width:0.5;" x1="20" x2="180" y1="20" y2="20"/><text fill="#1D1D1F" font-family="'Inter, sans-serif'" font-size="14" font-weight="700" lengthAdjust="spacing" textLength="82.9609" x="25" y="32.9951">HAL_Delay</text><line style="stroke:#333333;stroke-width:0.5;" x1="20" x2="108.9609" y1="37.2969" y2="37.2969"/><line style="stroke:#333333;stroke-width:0.5;" x1="108.9609" x2="118.9609" y1="37.2969" y2="20"/><polygon fill="#E2E2F0" points="37,42.2969,63,42.2969,75,54.2969,63,66.2969,37,66.2969,25,54.2969" style="stroke:#006400;stroke-width:1.5;stroke-linejoin:miter;stroke-miterlimit:10;"/><polygon fill="#E2E2F0" points="87,42.2969,113,42.2969,125,54.2969,113,66.2969,87,66.2969,75,54.2969" style="stroke:#006400;stroke-width:1.5;stroke-linejoin:miter;stroke-miterlimit:10;"/><polygon fill="#E2E2F0" points="137,42.2969,175,42.2969,175,66.2969,137,66.2969,125,54.2969" style="stroke:#E2E2F0;stroke-width:1.5;stroke-linejoin:miter;stroke-miterlimit:10;"/><path d="M175,42.2969 L137,42.2969 L125,54.2969 L137,66.2969 L175,66.2969" fill="#E2E2F0" style="stroke:#006400;stroke-width:1.5;"/><text fill="#1D1D1F" font-family="'Inter, sans-serif'" font-size="12" font-weight="700" lengthAdjust="spacing" textLength="32.6543" x="33.6729" y="58.4512">Busy</text><text fill="#1D1D1F" font-family="'Inter, sans-serif'" font-size="12" font-weight="700" lengthAdjust="spacing" textLength="81.4805" x="59.2598" y="58.4512">pr&#228;emptiert</text><text fill="#1D1D1F" font-family="'Inter, sans-serif'" font-size="12" font-weight="700" lengthAdjust="spacing" textLength="32.6543" x="137" y="58.4512">Busy</text><line style="stroke:#333333;stroke-width:0.5;" x1="20" x2="180" y1="76.2969" y2="76.2969"/><text fill="#1D1D1F" font-family="'Inter, sans-serif'" font-size="14" font-weight="700" lengthAdjust="spacing" textLength="62.4395" x="25" y="89.292">osDelay</text><line style="stroke:#333333;stroke-width:0.5;" x1="20" x2="88.4395" y1="93.5938" y2="93.5938"/><line style="stroke:#333333;stroke-width:0.5;" x1="88.4395" x2="98.4395" y1="93.5938" y2="76.2969"/><polygon fill="#E2E2F0" points="37,98.5938,63,98.5938,75,110.5938,63,122.5938,37,122.5938,25,110.5938" style="stroke:#006400;stroke-width:1.5;stroke-linejoin:miter;stroke-miterlimit:10;"/><polygon fill="#E2E2F0" points="87,98.5938,113,98.5938,125,110.5938,113,122.5938,87,122.5938,75,110.5938" style="stroke:#006400;stroke-width:1.5;stroke-linejoin:miter;stroke-miterlimit:10;"/><polygon fill="#E2E2F0" points="137,98.5938,175,98.5938,175,122.5938,137,122.5938,125,110.5938" style="stroke:#E2E2F0;stroke-width:1.5;stroke-linejoin:miter;stroke-miterlimit:10;"/><path d="M175,98.5938 L137,98.5938 L125,110.5938 L137,122.5938 L175,122.5938" fill="#E2E2F0" style="stroke:#006400;stroke-width:1.5;"/><text fill="#1D1D1F" font-family="'Inter, sans-serif'" font-size="12" font-weight="700" lengthAdjust="spacing" textLength="53.3262" x="23.3369" y="114.748">Blocked</text><text fill="#1D1D1F" font-family="'Inter, sans-serif'" font-size="12" font-weight="700" lengthAdjust="spacing" textLength="111.9785" x="44.0107" y="114.748">andere oder Idle</text><text fill="#1D1D1F" font-family="'Inter, sans-serif'" font-size="12" font-weight="700" lengthAdjust="spacing" textLength="45.9844" x="137" y="114.748">wieder</text><line style="stroke:#333333;stroke-width:2;" x1="25" x2="25" y1="132.5938" y2="137.5938"/><line style="stroke:#333333;stroke-width:2;" x1="75" x2="75" y1="132.5938" y2="137.5938"/><line style="stroke:#333333;stroke-width:2;" x1="125" x2="125" y1="132.5938" y2="137.5938"/><line style="stroke:#333333;stroke-width:2;" x1="175" x2="175" y1="132.5938" y2="137.5938"/><line style="stroke:#333333;stroke-width:2;" x1="25" x2="175" y1="132.5938" y2="132.5938"/><text fill="#1D1D1F" font-family="'Inter, sans-serif'" font-size="11" lengthAdjust="spacing" textLength="6.9985" x="21.5007" y="148.8042">0</text><text fill="#1D1D1F" font-family="'Inter, sans-serif'" font-size="11" lengthAdjust="spacing" textLength="6.9985" x="71.5007" y="148.8042">3</text><text fill="#1D1D1F" font-family="'Inter, sans-serif'" font-size="11" lengthAdjust="spacing" textLength="6.9985" x="121.5007" y="148.8042">6</text><?plantuml-src RO_XIiCm4CU_vocExAj2fpZysDPPEXZkWmyWiRcLqFIkN5B64D_6D_75ZEjqSvW_X72_7tUNq3aQZ9WUNatJjS8ZsGVsB135K4W8AQhmQrdScj77YYa-cHv1hoYYN458ydL0SLlzlpqrdSsNATMPKeZmxWZl5odb6OokTzJ2cm8eBzQRLOVpJLWioh7wU9TIfEhQ4VwT2V3iMZB-nxp9idcXtbN3rBYGlb8NwvSbUhFNO0BK9y3XLDweF5Crk03b6FPgStXvRZgqAh-TY1xaymFx8JgKg2T76qfR8d2wOMKzQfKlBXlj72Ry1G00?></g></svg>