<svg xmlns="http://www.w3.org/2000/svg" xmlns:xlink="http://www.w3.org/1999/xlink" version="1.1" data-diagram-type="TIMING" style="width:499px;height:289px;" width="499px" height="289px" viewBox="0 0 499 289" zoomAndPan="magnify" preserveAspectRatio="none" contentStyleType="text/css"><?plantuml 1.2026.8?><defs/><g font-family="sans-serif" lengthAdjust="spacing"><line x1="20" y1="20" x2="20" y2="255.891" style="stroke:#333;stroke-width:0.5;"/><line x1="478.715" y1="20" x2="478.715" y2="255.891" style="stroke:#333;stroke-width:0.5;"/><line x1="73.715" y1="20" x2="73.715" y2="255.891" style="stroke:#333;stroke-width:0.5;stroke-dasharray:3,5;"/><line x1="123.715" y1="20" x2="123.715" y2="255.891" style="stroke:#333;stroke-width:0.5;stroke-dasharray:3,5;"/><line x1="173.715" y1="20" x2="173.715" y2="255.891" style="stroke:#333;stroke-width:0.5;stroke-dasharray:3,5;"/><line x1="223.715" y1="20" x2="223.715" y2="255.891" style="stroke:#333;stroke-width:0.5;stroke-dasharray:3,5;"/><line x1="273.715" y1="20" x2="273.715" y2="255.891" style="stroke:#333;stroke-width:0.5;stroke-dasharray:3,5;"/><line x1="323.715" y1="20" x2="323.715" y2="255.891" style="stroke:#333;stroke-width:0.5;stroke-dasharray:3,5;"/><line x1="373.715" y1="20" x2="373.715" y2="255.891" style="stroke:#333;stroke-width:0.5;stroke-dasharray:3,5;"/><line x1="423.715" y1="20" x2="423.715" y2="255.891" style="stroke:#333;stroke-width:0.5;stroke-dasharray:3,5;"/><line x1="473.715" y1="20" x2="473.715" y2="255.891" style="stroke:#333;stroke-width:0.5;stroke-dasharray:3,5;"/><line x1="20" y1="20" x2="478.715" y2="20" style="stroke:#333;stroke-width:0.5;"/><text x="25" y="32.995" fill="#1D1D1F" font-size="14" textLength="110.305" font-weight="700" font-family="'Inter, sans-serif'">Polling-Runde</text><line x1="20" y1="37.297" x2="136.305" y2="37.297" style="stroke:#333;stroke-width:0.5;"/><line x1="136.305" y1="37.297" x2="146.305" y2="20" style="stroke:#333;stroke-width:0.5;"/><text x="25" y="112.451" fill="#1D1D1F" font-size="12" textLength="48.715" font-family="'Inter, sans-serif'">Eingang</text><text x="25" y="92.451" fill="#1D1D1F" font-size="12" textLength="38.59" font-family="'Inter, sans-serif'">Komm</text><text x="25" y="72.451" fill="#1D1D1F" font-size="12" textLength="44.232" font-family="'Inter, sans-serif'">Display</text><text x="25" y="52.451" fill="#1D1D1F" font-size="12" textLength="21.873" font-family="'Inter, sans-serif'">Idle</text><line x1="73.715" y1="107.297" x2="123.715" y2="107.297" style="stroke:#006400;stroke-width:2;"/><line x1="123.715" y1="87.297" x2="173.715" y2="87.297" style="stroke:#006400;stroke-width:2;"/><line x1="173.715" y1="67.297" x2="323.715" y2="67.297" style="stroke:#006400;stroke-width:2;"/><line x1="323.715" y1="47.297" x2="423.715" y2="47.297" style="stroke:#006400;stroke-width:2;"/><line x1="423.715" y1="47.297" x2="473.715" y2="47.297" style="stroke:#006400;stroke-width:2;"/><line x1="123.715" y1="87.297" x2="123.715" y2="107.297" style="stroke:#006400;stroke-width:2;"/><line x1="173.715" y1="67.297" x2="173.715" y2="87.297" style="stroke:#006400;stroke-width:2;"/><line x1="323.715" y1="47.297" x2="323.715" y2="67.297" style="stroke:#006400;stroke-width:2;"/><line x1="423.715" y1="47.297" x2="423.715" y2="47.297" style="stroke:#006400;stroke-width:2;"/><line x1="20" y1="125.297" x2="478.715" y2="125.297" style="stroke:#333;stroke-width:0.5;"/><text x="25" y="138.292" fill="#1D1D1F" font-size="14" textLength="100.037" font-weight="700" font-family="'Inter, sans-serif'">FB: ISR/Main</text><line x1="20" y1="142.594" x2="126.037" y2="142.594" style="stroke:#333;stroke-width:0.5;"/><line x1="126.037" y1="142.594" x2="136.037" y2="125.297" style="stroke:#333;stroke-width:0.5;"/><text x="40.068" y="177.748" fill="#1D1D1F" font-size="12" textLength="28.646" font-family="'Inter, sans-serif'">Main</text><text x="40.068" y="157.748" fill="#1D1D1F" font-size="12" textLength="19.494" font-family="'Inter, sans-serif'">ISR</text><line x1="73.715" y1="172.594" x2="123.715" y2="172.594" style="stroke:#006400;stroke-width:2;"/><line x1="123.715" y1="152.594" x2="173.715" y2="152.594" style="stroke:#006400;stroke-width:2;"/><line x1="173.715" y1="172.594" x2="323.715" y2="172.594" style="stroke:#006400;stroke-width:2;"/><line x1="323.715" y1="172.594" x2="423.715" y2="172.594" style="stroke:#006400;stroke-width:2;"/><line x1="423.715" y1="172.594" x2="473.715" y2="172.594" style="stroke:#006400;stroke-width:2;"/><line x1="123.715" y1="152.594" x2="123.715" y2="172.594" style="stroke:#006400;stroke-width:2;"/><line x1="173.715" y1="152.594" x2="173.715" y2="172.594" style="stroke:#006400;stroke-width:2;"/><line x1="323.715" y1="172.594" x2="323.715" y2="172.594" style="stroke:#006400;stroke-width:2;"/><line x1="423.715" y1="172.594" x2="423.715" y2="172.594" style="stroke:#006400;stroke-width:2;"/><line x1="20" y1="190.594" x2="478.715" y2="190.594" style="stroke:#333;stroke-width:0.5;"/><text x="25" y="203.589" fill="#1D1D1F" font-size="14" textLength="93.099" font-weight="700" font-family="'Inter, sans-serif'">RTOS-Tasks</text><line x1="20" y1="207.891" x2="119.099" y2="207.891" style="stroke:#333;stroke-width:0.5;"/><line x1="119.099" y1="207.891" x2="129.099" y2="190.594" style="stroke:#333;stroke-width:0.5;"/><text x="41.135" y="243.045" fill="#1D1D1F" font-size="12" textLength="23.842" font-family="'Inter, sans-serif'">Low</text><text x="41.135" y="223.045" fill="#1D1D1F" font-size="12" textLength="27.58" font-family="'Inter, sans-serif'">High</text><line x1="73.715" y1="237.891" x2="123.715" y2="237.891" style="stroke:#006400;stroke-width:2;"/><line x1="123.715" y1="217.891" x2="173.715" y2="217.891" style="stroke:#006400;stroke-width:2;"/><line x1="173.715" y1="217.891" x2="323.715" y2="217.891" style="stroke:#006400;stroke-width:2;"/><line x1="323.715" y1="237.891" x2="423.715" y2="237.891" style="stroke:#006400;stroke-width:2;"/><line x1="423.715" y1="237.891" x2="473.715" y2="237.891" style="stroke:#006400;stroke-width:2;"/><line x1="123.715" y1="217.891" x2="123.715" y2="237.891" style="stroke:#006400;stroke-width:2;"/><line x1="173.715" y1="217.891" x2="173.715" y2="217.891" style="stroke:#006400;stroke-width:2;"/><line x1="323.715" y1="217.891" x2="323.715" y2="237.891" style="stroke:#006400;stroke-width:2;"/><line x1="423.715" y1="237.891" x2="423.715" y2="237.891" style="stroke:#006400;stroke-width:2;"/><line x1="73.715" y1="255.891" x2="73.715" y2="260.891" style="stroke:#333;stroke-width:2;"/><line x1="123.715" y1="255.891" x2="123.715" y2="260.891" style="stroke:#333;stroke-width:2;"/><line x1="173.715" y1="255.891" x2="173.715" y2="260.891" style="stroke:#333;stroke-width:2;"/><line x1="223.715" y1="255.891" x2="223.715" y2="260.891" style="stroke:#333;stroke-width:2;"/><line x1="273.715" y1="255.891" x2="273.715" y2="260.891" style="stroke:#333;stroke-width:2;"/><line x1="323.715" y1="255.891" x2="323.715" y2="260.891" style="stroke:#333;stroke-width:2;"/><line x1="373.715" y1="255.891" x2="373.715" y2="260.891" style="stroke:#333;stroke-width:2;"/><line x1="423.715" y1="255.891" x2="423.715" y2="260.891" style="stroke:#333;stroke-width:2;"/><line x1="473.715" y1="255.891" x2="473.715" y2="260.891" style="stroke:#333;stroke-width:2;"/><line x1="73.715" y1="255.891" x2="473.715" y2="255.891" style="stroke:#333;stroke-width:2;"/><text x="70.216" y="272.101" fill="#1D1D1F" font-size="11" font-family="'Inter, sans-serif'">0</text><text x="120.216" y="272.101" fill="#1D1D1F" font-size="11" font-family="'Inter, sans-serif'">1</text><text x="170.216" y="272.101" fill="#1D1D1F" font-size="11" font-family="'Inter, sans-serif'">2</text><text x="320.216" y="272.101" fill="#1D1D1F" font-size="11" font-family="'Inter, sans-serif'">5</text><text x="420.216" y="272.101" fill="#1D1D1F" font-size="11" font-family="'Inter, sans-serif'">7</text><?plantuml-src VOxHJeCm58Rl-nGdxDP5M88pNWbkZSGv2Um5EkcmeRHBMx8OuxjRA1A6nFutRRwl_pcwOk9C5AdXIDwhKib654-IImL64Q4jei8WFLW5FP666oo5sPEQWfS8GzKDQ2ilDLNivCtRhdGHR6pmI8cKafSUtj_Pn2EubuR6axqMEBHPJosf2gfwOnlQH2F3i9g94huGmD-wxhHafW9WnmIztXqWPwKW_DTS-NuGeM-4b3msse2NIixjk6LcXr0FY8PqO3X-W2JFRby94nt20yeER_doG7IbEv0XzEYZ59Y6hMqZeaIuVRG_KTRUTl9YdS0vBxAkdM3h7NzcvOSLLaxOC7tcv7DQqakXavA2q_anwt-57m00?></g></svg>