<svg xmlns="http://www.w3.org/2000/svg" xmlns:xlink="http://www.w3.org/1999/xlink" contentStyleType="text/css" data-diagram-type="TIMING" height="289px" preserveAspectRatio="none" style="width:500px;height:289px;" version="1.1" viewBox="0 0 500 289" width="500px" zoomAndPan="magnify"><?plantuml 1.2026.6?><defs/><g><line style="stroke:#333333;stroke-width:0.5;" x1="20" x2="20" y1="20" y2="255.8906"/><line style="stroke:#333333;stroke-width:0.5;" x1="479.7109" x2="479.7109" y1="20" y2="255.8906"/><line style="stroke:#333333;stroke-width:0.5;stroke-dasharray:3,5;" x1="74.7109" x2="74.7109" y1="20" y2="255.8906"/><line style="stroke:#333333;stroke-width:0.5;stroke-dasharray:3,5;" x1="124.7109" x2="124.7109" y1="20" y2="255.8906"/><line style="stroke:#333333;stroke-width:0.5;stroke-dasharray:3,5;" x1="174.7109" x2="174.7109" y1="20" y2="255.8906"/><line style="stroke:#333333;stroke-width:0.5;stroke-dasharray:3,5;" x1="224.7109" x2="224.7109" y1="20" y2="255.8906"/><line style="stroke:#333333;stroke-width:0.5;stroke-dasharray:3,5;" x1="274.7109" x2="274.7109" y1="20" y2="255.8906"/><line style="stroke:#333333;stroke-width:0.5;stroke-dasharray:3,5;" x1="324.7109" x2="324.7109" y1="20" y2="255.8906"/><line style="stroke:#333333;stroke-width:0.5;stroke-dasharray:3,5;" x1="374.7109" x2="374.7109" y1="20" y2="255.8906"/><line style="stroke:#333333;stroke-width:0.5;stroke-dasharray:3,5;" x1="424.7109" x2="424.7109" y1="20" y2="255.8906"/><line style="stroke:#333333;stroke-width:0.5;stroke-dasharray:3,5;" x1="474.7109" x2="474.7109" y1="20" y2="255.8906"/><line style="stroke:#333333;stroke-width:0.5;" x1="20" x2="479.7109" y1="20" y2="20"/><text fill="#1D1D1F" font-family="'Inter, sans-serif'" font-size="14" font-weight="700" lengthAdjust="spacing" textLength="36.5039" x="25" y="32.9951">High</text><line style="stroke:#333333;stroke-width:0.5;" x1="20" x2="62.5039" y1="37.2969" y2="37.2969"/><line style="stroke:#333333;stroke-width:0.5;" x1="62.5039" x2="72.5039" y1="37.2969" y2="20"/><text fill="#1D1D1F" font-family="'Inter, sans-serif'" font-size="12" lengthAdjust="spacing" textLength="37.793" x="25" y="92.4512">Ready</text><text fill="#1D1D1F" font-family="'Inter, sans-serif'" font-size="12" lengthAdjust="spacing" textLength="47.4551" x="25" y="72.4512">Blocked</text><text fill="#1D1D1F" font-family="'Inter, sans-serif'" font-size="12" lengthAdjust="spacing" textLength="49.7109" x="25" y="52.4512">Running</text><line style="stroke:#006400;stroke-width:2;" x1="74.7109" x2="124.7109" y1="87.2969" y2="87.2969"/><line style="stroke:#006400;stroke-width:2;" x1="124.7109" x2="174.7109" y1="67.2969" y2="67.2969"/><line style="stroke:#006400;stroke-width:2;" x1="174.7109" x2="324.7109" y1="67.2969" y2="67.2969"/><line style="stroke:#006400;stroke-width:2;" x1="324.7109" x2="424.7109" y1="67.2969" y2="67.2969"/><line style="stroke:#006400;stroke-width:2;" x1="424.7109" x2="474.7109" y1="47.2969" y2="47.2969"/><line style="stroke:#006400;stroke-width:2;" x1="124.7109" x2="124.7109" y1="67.2969" y2="87.2969"/><line style="stroke:#006400;stroke-width:2;" x1="174.7109" x2="174.7109" y1="67.2969" y2="67.2969"/><line style="stroke:#006400;stroke-width:2;" x1="324.7109" x2="324.7109" y1="67.2969" y2="67.2969"/><line style="stroke:#006400;stroke-width:2;" x1="424.7109" x2="424.7109" y1="47.2969" y2="67.2969"/><line style="stroke:#333333;stroke-width:0.5;" x1="20" x2="479.7109" y1="105.2969" y2="105.2969"/><text fill="#1D1D1F" font-family="'Inter, sans-serif'" font-size="14" font-weight="700" lengthAdjust="spacing" textLength="62.8018" x="25" y="118.292">Medium</text><line style="stroke:#333333;stroke-width:0.5;" x1="20" x2="88.8018" y1="122.5938" y2="122.5938"/><line style="stroke:#333333;stroke-width:0.5;" x1="88.8018" x2="98.8018" y1="122.5938" y2="105.2969"/><text fill="#1D1D1F" font-family="'Inter, sans-serif'" font-size="12" lengthAdjust="spacing" textLength="21.873" x="25" y="157.748">Idle</text><text fill="#1D1D1F" font-family="'Inter, sans-serif'" font-size="12" lengthAdjust="spacing" textLength="49.7109" x="25" y="137.748">Running</text><line style="stroke:#006400;stroke-width:2;" x1="74.7109" x2="124.7109" y1="152.5938" y2="152.5938"/><line style="stroke:#006400;stroke-width:2;" x1="124.7109" x2="174.7109" y1="152.5938" y2="152.5938"/><line style="stroke:#006400;stroke-width:2;" x1="174.7109" x2="324.7109" y1="132.5938" y2="132.5938"/><line style="stroke:#006400;stroke-width:2;" x1="324.7109" x2="424.7109" y1="152.5938" y2="152.5938"/><line style="stroke:#006400;stroke-width:2;" x1="424.7109" x2="474.7109" y1="152.5938" y2="152.5938"/><line style="stroke:#006400;stroke-width:2;" x1="124.7109" x2="124.7109" y1="152.5938" y2="152.5938"/><line style="stroke:#006400;stroke-width:2;" x1="174.7109" x2="174.7109" y1="132.5938" y2="152.5938"/><line style="stroke:#006400;stroke-width:2;" x1="324.7109" x2="324.7109" y1="132.5938" y2="152.5938"/><line style="stroke:#006400;stroke-width:2;" x1="424.7109" x2="424.7109" y1="152.5938" y2="152.5938"/><line style="stroke:#333333;stroke-width:0.5;" x1="20" x2="479.7109" y1="170.5938" y2="170.5938"/><text fill="#1D1D1F" font-family="'Inter, sans-serif'" font-size="14" font-weight="700" lengthAdjust="spacing" textLength="31.4727" x="25" y="183.5889">Low</text><line style="stroke:#333333;stroke-width:0.5;" x1="20" x2="57.4727" y1="187.8906" y2="187.8906"/><line style="stroke:#333333;stroke-width:0.5;" x1="57.4727" x2="67.4727" y1="187.8906" y2="170.5938"/><text fill="#1D1D1F" font-family="'Inter, sans-serif'" font-size="12" lengthAdjust="spacing" textLength="49.7109" x="25" y="243.0449">Running</text><text fill="#1D1D1F" font-family="'Inter, sans-serif'" font-size="12" lengthAdjust="spacing" textLength="37.793" x="25" y="223.0449">Ready</text><text fill="#1D1D1F" font-family="'Inter, sans-serif'" font-size="12" lengthAdjust="spacing" textLength="21.873" x="25" y="203.0449">Idle</text><line style="stroke:#006400;stroke-width:2;" x1="74.7109" x2="124.7109" y1="237.8906" y2="237.8906"/><line style="stroke:#006400;stroke-width:2;" x1="124.7109" x2="174.7109" y1="237.8906" y2="237.8906"/><line style="stroke:#006400;stroke-width:2;" x1="174.7109" x2="324.7109" y1="217.8906" y2="217.8906"/><line style="stroke:#006400;stroke-width:2;" x1="324.7109" x2="424.7109" y1="237.8906" y2="237.8906"/><line style="stroke:#006400;stroke-width:2;" x1="424.7109" x2="474.7109" y1="197.8906" y2="197.8906"/><line style="stroke:#006400;stroke-width:2;" x1="124.7109" x2="124.7109" y1="237.8906" y2="237.8906"/><line style="stroke:#006400;stroke-width:2;" x1="174.7109" x2="174.7109" y1="217.8906" y2="237.8906"/><line style="stroke:#006400;stroke-width:2;" x1="324.7109" x2="324.7109" y1="217.8906" y2="237.8906"/><line style="stroke:#006400;stroke-width:2;" x1="424.7109" x2="424.7109" y1="197.8906" y2="237.8906"/><line style="stroke:#333333;stroke-width:2;" x1="74.7109" x2="74.7109" y1="255.8906" y2="260.8906"/><line style="stroke:#333333;stroke-width:2;" x1="124.7109" x2="124.7109" y1="255.8906" y2="260.8906"/><line style="stroke:#333333;stroke-width:2;" x1="174.7109" x2="174.7109" y1="255.8906" y2="260.8906"/><line style="stroke:#333333;stroke-width:2;" x1="224.7109" x2="224.7109" y1="255.8906" y2="260.8906"/><line style="stroke:#333333;stroke-width:2;" x1="274.7109" x2="274.7109" y1="255.8906" y2="260.8906"/><line style="stroke:#333333;stroke-width:2;" x1="324.7109" x2="324.7109" y1="255.8906" y2="260.8906"/><line style="stroke:#333333;stroke-width:2;" x1="374.7109" x2="374.7109" y1="255.8906" y2="260.8906"/><line style="stroke:#333333;stroke-width:2;" x1="424.7109" x2="424.7109" y1="255.8906" y2="260.8906"/><line style="stroke:#333333;stroke-width:2;" x1="474.7109" x2="474.7109" y1="255.8906" y2="260.8906"/><line style="stroke:#333333;stroke-width:2;" x1="74.7109" x2="474.7109" y1="255.8906" y2="255.8906"/><text fill="#1D1D1F" font-family="'Inter, sans-serif'" font-size="11" lengthAdjust="spacing" textLength="6.9985" x="71.2117" y="272.1011">0</text><text fill="#1D1D1F" font-family="'Inter, sans-serif'" font-size="11" lengthAdjust="spacing" textLength="6.9985" x="121.2117" y="272.1011">1</text><text fill="#1D1D1F" font-family="'Inter, sans-serif'" font-size="11" lengthAdjust="spacing" textLength="6.9985" x="171.2117" y="272.1011">2</text><text fill="#1D1D1F" font-family="'Inter, sans-serif'" font-size="11" lengthAdjust="spacing" textLength="6.9985" x="321.2117" y="272.1011">5</text><text fill="#1D1D1F" font-family="'Inter, sans-serif'" font-size="11" lengthAdjust="spacing" textLength="6.9985" x="421.2117" y="272.1011">7</text><?plantuml-src TOx1ReCm44Jl-nKhScqbY4JJOw0j8XBaq7w14s-eXR4hsoYgglvx7I0KQEgvU6VUZjRMGdqmmneyi6DT6Tqg_gIbDkWCKzP7f1pOaU9qOgrqcLPkpnh2OASScJkq7hwtPCGfk4ttfQlesIkR88an-Zo4ZmzUwIJSQqVfugvL5djjbfGsdCn0lCHUoOHmeX6gmYz0_5lNlKjoemAn48hcjoE-YKenUINNOHWby0rWzA6r3eDSLEy1CelvQ9N4HTjqPZcQXJvtJW6m3Q50OV6rLSfV2dat4EEVK5w-Eox9Kr4Vf58VQ-BpbIctxgThLFospVPX6__NiU0smqNJmeuRDtu0?></g></svg>