<svg xmlns="http://www.w3.org/2000/svg" xmlns:xlink="http://www.w3.org/1999/xlink" version="1.1" data-diagram-type="TIMING" style="width:151px;height:166px;" width="151px" height="166px" viewBox="0 0 151 166" zoomAndPan="magnify" preserveAspectRatio="none" contentStyleType="text/css"><?plantuml 1.2026.8?><defs/><g font-family="sans-serif" lengthAdjust="spacing"><line x1="20" y1="20" x2="20" y2="132.594" style="stroke:#333;stroke-width:0.5;"/><line x1="130" y1="20" x2="130" y2="132.594" style="stroke:#333;stroke-width:0.5;"/><line x1="25" y1="20" x2="25" y2="132.594" style="stroke:#333;stroke-width:0.5;stroke-dasharray:3,5;"/><line x1="75" y1="20" x2="75" y2="132.594" style="stroke:#333;stroke-width:0.5;stroke-dasharray:3,5;"/><line x1="125" y1="20" x2="125" y2="132.594" style="stroke:#333;stroke-width:0.5;stroke-dasharray:3,5;"/><line x1="20" y1="20" x2="130" y2="20" style="stroke:#333;stroke-width:0.5;"/><text x="25" y="32.995" fill="#1D1D1F" font-size="14" textLength="34.87" font-weight="700" font-family="'Inter, sans-serif'">Spin</text><line x1="20" y1="37.297" x2="60.87" y2="37.297" style="stroke:#333;stroke-width:0.5;"/><line x1="60.87" y1="37.297" x2="70.87" y2="20" style="stroke:#333;stroke-width:0.5;"/><polygon points="37,42.297,63,42.297,75,54.297,63,66.297,37,66.297,25,54.297" fill="#E2E2F0" style="stroke:#006400;stroke-width:1.5;stroke-linejoin:miter;stroke-miterlimit:10;"/><polygon points="87,42.297,125,42.297,125,66.297,87,66.297,75,54.297" fill="#E2E2F0" style="stroke:#E2E2F0;stroke-width:1.5;stroke-linejoin:miter;stroke-miterlimit:10;"/><path d="M125,42.297 L87,42.297 L75,54.297 L87,66.297 L125,66.297" style="stroke:#006400;stroke-width:1.5;" fill="#E2E2F0"/><text x="27.491" y="58.451" fill="#1D1D1F" font-size="12" textLength="45.018" font-weight="700" font-family="'Inter, sans-serif'">H pollt</text><text x="87" y="58.451" fill="#1D1D1F" font-size="12" textLength="56.537" font-weight="700" font-family="'Inter, sans-serif'">L wartet</text><line x1="20" y1="76.297" x2="130" y2="76.297" style="stroke:#333;stroke-width:0.5;"/><text x="25" y="89.292" fill="#1D1D1F" font-size="14" textLength="42.697" font-weight="700" font-family="'Inter, sans-serif'">Block</text><line x1="20" y1="93.594" x2="68.697" y2="93.594" style="stroke:#333;stroke-width:0.5;"/><line x1="68.697" y1="93.594" x2="78.697" y2="76.297" style="stroke:#333;stroke-width:0.5;"/><polygon points="37,98.594,63,98.594,75,110.594,63,122.594,37,122.594,25,110.594" fill="#E2E2F0" style="stroke:#006400;stroke-width:1.5;stroke-linejoin:miter;stroke-miterlimit:10;"/><polygon points="87,98.594,125,98.594,125,122.594,87,122.594,75,110.594" fill="#E2E2F0" style="stroke:#E2E2F0;stroke-width:1.5;stroke-linejoin:miter;stroke-miterlimit:10;"/><path d="M125,98.594 L87,98.594 L75,110.594 L87,122.594 L125,122.594" style="stroke:#006400;stroke-width:1.5;" fill="#E2E2F0"/><text x="16.505" y="114.748" fill="#1D1D1F" font-size="12" textLength="66.99" font-weight="700" font-family="'Inter, sans-serif'">H blocked</text><text x="87" y="114.748" fill="#1D1D1F" font-size="12" textLength="63.955" font-weight="700" font-family="'Inter, sans-serif'">L rechnet</text><line x1="25" y1="132.594" x2="25" y2="137.594" style="stroke:#333;stroke-width:2;"/><line x1="75" y1="132.594" x2="75" y2="137.594" style="stroke:#333;stroke-width:2;"/><line x1="125" y1="132.594" x2="125" y2="137.594" style="stroke:#333;stroke-width:2;"/><line x1="25" y1="132.594" x2="125" y2="132.594" style="stroke:#333;stroke-width:2;"/><text x="21.501" y="148.804" fill="#1D1D1F" font-size="11" font-family="'Inter, sans-serif'">0</text><text x="71.501" y="148.804" fill="#1D1D1F" font-size="11" font-family="'Inter, sans-serif'">2</text><?plantuml-src ROz1Ri8m44NtFiN8R5if855rIGoDYXHranCOPmYZEEDeRCG2SVSQcb9QrN_bzv_6djWJZrRi03lh-ax2aTjry44WYUMOA-IaujrgSM-FFbM1quST4FIM4yeJn2m_HnJQw__jhw6p-IQdUb1AaN2QojUN7FDG9Xg8EpWh0FFdUxFgTgvDa1Pbec_Bd3BJcXX_lmdGKCVMVvkBefYNwg9SO4SnhzACn1fiXEQ76HzSVuD6hGhL04NGxp06xvDMPhhkhXQsMgqMarB3oKh2krE3e3jm1fy0?></g></svg>