<svg xmlns="http://www.w3.org/2000/svg" xmlns:xlink="http://www.w3.org/1999/xlink" contentStyleType="text/css" data-diagram-type="TIMING" height="222px" preserveAspectRatio="none" style="width:3301px;height:222px;" version="1.1" viewBox="0 0 3301 222" width="3301px" zoomAndPan="magnify"><?plantuml 1.2026.6?><defs/><g><line style="stroke:#333333;stroke-width:0.5;" x1="20" x2="20" y1="20" y2="188.8906"/><line style="stroke:#333333;stroke-width:0.5;" x1="3280" x2="3280" y1="20" y2="188.8906"/><line style="stroke:#333333;stroke-width:0.5;stroke-dasharray:3,5;" x1="25" x2="25" y1="20" y2="188.8906"/><line style="stroke:#333333;stroke-width:0.5;stroke-dasharray:3,5;" x1="75" x2="75" y1="20" y2="188.8906"/><line style="stroke:#333333;stroke-width:0.5;stroke-dasharray:3,5;" x1="125" x2="125" y1="20" y2="188.8906"/><line style="stroke:#333333;stroke-width:0.5;stroke-dasharray:3,5;" x1="175" x2="175" y1="20" y2="188.8906"/><line style="stroke:#333333;stroke-width:0.5;stroke-dasharray:3,5;" x1="225" x2="225" y1="20" y2="188.8906"/><line style="stroke:#333333;stroke-width:0.5;stroke-dasharray:3,5;" x1="275" x2="275" y1="20" y2="188.8906"/><line style="stroke:#333333;stroke-width:0.5;stroke-dasharray:3,5;" x1="325" x2="325" y1="20" y2="188.8906"/><line style="stroke:#333333;stroke-width:0.5;stroke-dasharray:3,5;" x1="375" x2="375" y1="20" y2="188.8906"/><line style="stroke:#333333;stroke-width:0.5;stroke-dasharray:3,5;" x1="425" x2="425" y1="20" y2="188.8906"/><line style="stroke:#333333;stroke-width:0.5;stroke-dasharray:3,5;" x1="475" x2="475" y1="20" y2="188.8906"/><line style="stroke:#333333;stroke-width:0.5;stroke-dasharray:3,5;" x1="525" x2="525" y1="20" y2="188.8906"/><line style="stroke:#333333;stroke-width:0.5;stroke-dasharray:3,5;" x1="575" x2="575" y1="20" y2="188.8906"/><line style="stroke:#333333;stroke-width:0.5;stroke-dasharray:3,5;" x1="625" x2="625" y1="20" y2="188.8906"/><line style="stroke:#333333;stroke-width:0.5;stroke-dasharray:3,5;" x1="675" x2="675" y1="20" y2="188.8906"/><line style="stroke:#333333;stroke-width:0.5;stroke-dasharray:3,5;" x1="725" x2="725" y1="20" y2="188.8906"/><line style="stroke:#333333;stroke-width:0.5;stroke-dasharray:3,5;" x1="775" x2="775" y1="20" y2="188.8906"/><line style="stroke:#333333;stroke-width:0.5;stroke-dasharray:3,5;" x1="825" x2="825" y1="20" y2="188.8906"/><line style="stroke:#333333;stroke-width:0.5;stroke-dasharray:3,5;" x1="875" x2="875" y1="20" y2="188.8906"/><line style="stroke:#333333;stroke-width:0.5;stroke-dasharray:3,5;" x1="925" x2="925" y1="20" y2="188.8906"/><line style="stroke:#333333;stroke-width:0.5;stroke-dasharray:3,5;" x1="975" x2="975" y1="20" y2="188.8906"/><line style="stroke:#333333;stroke-width:0.5;stroke-dasharray:3,5;" x1="1025" x2="1025" y1="20" y2="188.8906"/><line style="stroke:#333333;stroke-width:0.5;stroke-dasharray:3,5;" x1="1075" x2="1075" y1="20" y2="188.8906"/><line style="stroke:#333333;stroke-width:0.5;stroke-dasharray:3,5;" x1="1125" x2="1125" y1="20" y2="188.8906"/><line style="stroke:#333333;stroke-width:0.5;stroke-dasharray:3,5;" x1="1175" x2="1175" y1="20" y2="188.8906"/><line style="stroke:#333333;stroke-width:0.5;stroke-dasharray:3,5;" x1="1225" x2="1225" y1="20" y2="188.8906"/><line style="stroke:#333333;stroke-width:0.5;stroke-dasharray:3,5;" x1="1275" x2="1275" y1="20" y2="188.8906"/><line style="stroke:#333333;stroke-width:0.5;stroke-dasharray:3,5;" x1="1325" x2="1325" y1="20" y2="188.8906"/><line style="stroke:#333333;stroke-width:0.5;stroke-dasharray:3,5;" x1="1375" x2="1375" y1="20" y2="188.8906"/><line style="stroke:#333333;stroke-width:0.5;stroke-dasharray:3,5;" x1="1425" x2="1425" y1="20" y2="188.8906"/><line style="stroke:#333333;stroke-width:0.5;stroke-dasharray:3,5;" x1="1475" x2="1475" y1="20" y2="188.8906"/><line style="stroke:#333333;stroke-width:0.5;stroke-dasharray:3,5;" x1="1525" x2="1525" y1="20" y2="188.8906"/><line style="stroke:#333333;stroke-width:0.5;stroke-dasharray:3,5;" x1="1575" x2="1575" y1="20" y2="188.8906"/><line style="stroke:#333333;stroke-width:0.5;stroke-dasharray:3,5;" x1="1625" x2="1625" y1="20" y2="188.8906"/><line style="stroke:#333333;stroke-width:0.5;stroke-dasharray:3,5;" x1="1675" x2="1675" y1="20" y2="188.8906"/><line style="stroke:#333333;stroke-width:0.5;stroke-dasharray:3,5;" x1="1725" x2="1725" y1="20" y2="188.8906"/><line style="stroke:#333333;stroke-width:0.5;stroke-dasharray:3,5;" x1="1775" x2="1775" y1="20" y2="188.8906"/><line style="stroke:#333333;stroke-width:0.5;stroke-dasharray:3,5;" x1="1825" x2="1825" y1="20" y2="188.8906"/><line style="stroke:#333333;stroke-width:0.5;stroke-dasharray:3,5;" x1="1875" x2="1875" y1="20" y2="188.8906"/><line style="stroke:#333333;stroke-width:0.5;stroke-dasharray:3,5;" x1="1925" x2="1925" y1="20" y2="188.8906"/><line style="stroke:#333333;stroke-width:0.5;stroke-dasharray:3,5;" x1="1975" x2="1975" y1="20" y2="188.8906"/><line style="stroke:#333333;stroke-width:0.5;stroke-dasharray:3,5;" x1="2025" x2="2025" y1="20" y2="188.8906"/><line style="stroke:#333333;stroke-width:0.5;stroke-dasharray:3,5;" x1="2075" x2="2075" y1="20" y2="188.8906"/><line style="stroke:#333333;stroke-width:0.5;stroke-dasharray:3,5;" x1="2125" x2="2125" y1="20" y2="188.8906"/><line style="stroke:#333333;stroke-width:0.5;stroke-dasharray:3,5;" x1="2175" x2="2175" y1="20" y2="188.8906"/><line style="stroke:#333333;stroke-width:0.5;stroke-dasharray:3,5;" x1="2225" x2="2225" y1="20" y2="188.8906"/><line style="stroke:#333333;stroke-width:0.5;stroke-dasharray:3,5;" x1="2275" x2="2275" y1="20" y2="188.8906"/><line style="stroke:#333333;stroke-width:0.5;stroke-dasharray:3,5;" x1="2325" x2="2325" y1="20" y2="188.8906"/><line style="stroke:#333333;stroke-width:0.5;stroke-dasharray:3,5;" x1="2375" x2="2375" y1="20" y2="188.8906"/><line style="stroke:#333333;stroke-width:0.5;stroke-dasharray:3,5;" x1="2425" x2="2425" y1="20" y2="188.8906"/><line style="stroke:#333333;stroke-width:0.5;stroke-dasharray:3,5;" x1="2475" x2="2475" y1="20" y2="188.8906"/><line style="stroke:#333333;stroke-width:0.5;stroke-dasharray:3,5;" x1="2525" x2="2525" y1="20" y2="188.8906"/><line style="stroke:#333333;stroke-width:0.5;stroke-dasharray:3,5;" x1="2575" x2="2575" y1="20" y2="188.8906"/><line style="stroke:#333333;stroke-width:0.5;stroke-dasharray:3,5;" x1="2625" x2="2625" y1="20" y2="188.8906"/><line style="stroke:#333333;stroke-width:0.5;stroke-dasharray:3,5;" x1="2675" x2="2675" y1="20" y2="188.8906"/><line style="stroke:#333333;stroke-width:0.5;stroke-dasharray:3,5;" x1="2725" x2="2725" y1="20" y2="188.8906"/><line style="stroke:#333333;stroke-width:0.5;stroke-dasharray:3,5;" x1="2775" x2="2775" y1="20" y2="188.8906"/><line style="stroke:#333333;stroke-width:0.5;stroke-dasharray:3,5;" x1="2825" x2="2825" y1="20" y2="188.8906"/><line style="stroke:#333333;stroke-width:0.5;stroke-dasharray:3,5;" x1="2875" x2="2875" y1="20" y2="188.8906"/><line style="stroke:#333333;stroke-width:0.5;stroke-dasharray:3,5;" x1="2925" x2="2925" y1="20" y2="188.8906"/><line style="stroke:#333333;stroke-width:0.5;stroke-dasharray:3,5;" x1="2975" x2="2975" y1="20" y2="188.8906"/><line style="stroke:#333333;stroke-width:0.5;stroke-dasharray:3,5;" x1="3025" x2="3025" y1="20" y2="188.8906"/><line style="stroke:#333333;stroke-width:0.5;stroke-dasharray:3,5;" x1="3075" x2="3075" y1="20" y2="188.8906"/><line style="stroke:#333333;stroke-width:0.5;stroke-dasharray:3,5;" x1="3125" x2="3125" y1="20" y2="188.8906"/><line style="stroke:#333333;stroke-width:0.5;stroke-dasharray:3,5;" x1="3175" x2="3175" y1="20" y2="188.8906"/><line style="stroke:#333333;stroke-width:0.5;stroke-dasharray:3,5;" x1="3225" x2="3225" y1="20" y2="188.8906"/><line style="stroke:#333333;stroke-width:0.5;stroke-dasharray:3,5;" x1="3275" x2="3275" y1="20" y2="188.8906"/><line style="stroke:#333333;stroke-width:0.5;" x1="20" x2="3280" y1="20" y2="20"/><text fill="#1D1D1F" font-family="'Inter, sans-serif'" font-size="14" font-weight="700" lengthAdjust="spacing" textLength="65.4131" x="25" y="32.9951">zu frueh</text><line style="stroke:#333333;stroke-width:0.5;" x1="20" x2="91.4131" y1="37.2969" y2="37.2969"/><line style="stroke:#333333;stroke-width:0.5;" x1="91.4131" x2="101.4131" y1="37.2969" y2="20"/><polygon fill="#E2E2F0" points="37,42.2969,763,42.2969,775,54.2969,763,66.2969,37,66.2969,25,54.2969" style="stroke:#006400;stroke-width:1.5;stroke-linejoin:miter;stroke-miterlimit:10;"/><polygon fill="#E2E2F0" points="787,42.2969,3275,42.2969,3275,66.2969,787,66.2969,775,54.2969" style="stroke:#E2E2F0;stroke-width:1.5;stroke-linejoin:miter;stroke-miterlimit:10;"/><path d="M3275,42.2969 L787,42.2969 L775,54.2969 L787,66.2969 L3275,66.2969" fill="#E2E2F0" style="stroke:#006400;stroke-width:1.5;"/><text fill="#1D1D1F" font-family="'Inter, sans-serif'" font-size="12" font-weight="700" lengthAdjust="spacing" textLength="25.0488" x="387.4756" y="58.4512">127</text><text fill="#1D1D1F" font-family="'Inter, sans-serif'" font-size="12" font-weight="700" lengthAdjust="spacing" textLength="38.3965" x="787" y="58.4512">Reset</text><line style="stroke:#333333;stroke-width:0.5;" x1="20" x2="3280" y1="76.2969" y2="76.2969"/><text fill="#1D1D1F" font-family="'Inter, sans-serif'" font-size="14" font-weight="700" lengthAdjust="spacing" textLength="84.7109" x="25" y="89.292">im Fenster</text><line style="stroke:#333333;stroke-width:0.5;" x1="20" x2="110.7109" y1="93.5938" y2="93.5938"/><line style="stroke:#333333;stroke-width:0.5;" x1="110.7109" x2="120.7109" y1="93.5938" y2="76.2969"/><polygon fill="#E2E2F0" points="37,98.5938,763,98.5938,775,110.5938,763,122.5938,37,122.5938,25,110.5938" style="stroke:#006400;stroke-width:1.5;stroke-linejoin:miter;stroke-miterlimit:10;"/><polygon fill="#E2E2F0" points="787,98.5938,2713,98.5938,2725,110.5938,2713,122.5938,787,122.5938,775,110.5938" style="stroke:#006400;stroke-width:1.5;stroke-linejoin:miter;stroke-miterlimit:10;"/><polygon fill="#E2E2F0" points="2737,98.5938,3275,98.5938,3275,122.5938,2737,122.5938,2725,110.5938" style="stroke:#E2E2F0;stroke-width:1.5;stroke-linejoin:miter;stroke-miterlimit:10;"/><path d="M3275,98.5938 L2737,98.5938 L2725,110.5938 L2737,122.5938 L3275,122.5938" fill="#E2E2F0" style="stroke:#006400;stroke-width:1.5;"/><text fill="#1D1D1F" font-family="'Inter, sans-serif'" font-size="12" font-weight="700" lengthAdjust="spacing" textLength="25.0488" x="387.4756" y="114.748">127</text><text fill="#1D1D1F" font-family="'Inter, sans-serif'" font-size="12" font-weight="700" lengthAdjust="spacing" textLength="41.6133" x="1729.1934" y="114.748">zaehlt</text><text fill="#1D1D1F" font-family="'Inter, sans-serif'" font-size="12" font-weight="700" lengthAdjust="spacing" textLength="52.3418" x="2737" y="114.748">Refresh</text><line style="stroke:#333333;stroke-width:0.5;" x1="20" x2="3280" y1="132.5938" y2="132.5938"/><text fill="#1D1D1F" font-family="'Inter, sans-serif'" font-size="14" font-weight="700" lengthAdjust="spacing" textLength="99.5107" x="25" y="145.5889">kein Refresh</text><line style="stroke:#333333;stroke-width:0.5;" x1="20" x2="125.5107" y1="149.8906" y2="149.8906"/><line style="stroke:#333333;stroke-width:0.5;" x1="125.5107" x2="135.5107" y1="149.8906" y2="132.5938"/><polygon fill="#E2E2F0" points="37,154.8906,763,154.8906,775,166.8906,763,178.8906,37,178.8906,25,166.8906" style="stroke:#006400;stroke-width:1.5;stroke-linejoin:miter;stroke-miterlimit:10;"/><polygon fill="#E2E2F0" points="787,154.8906,3163,154.8906,3175,166.8906,3163,178.8906,787,178.8906,775,166.8906" style="stroke:#006400;stroke-width:1.5;stroke-linejoin:miter;stroke-miterlimit:10;"/><polygon fill="#E2E2F0" points="3187,154.8906,3213,154.8906,3225,166.8906,3213,178.8906,3187,178.8906,3175,166.8906" style="stroke:#006400;stroke-width:1.5;stroke-linejoin:miter;stroke-miterlimit:10;"/><polygon fill="#E2E2F0" points="3237,154.8906,3275,154.8906,3275,178.8906,3237,178.8906,3225,166.8906" style="stroke:#E2E2F0;stroke-width:1.5;stroke-linejoin:miter;stroke-miterlimit:10;"/><path d="M3275,154.8906 L3237,154.8906 L3225,166.8906 L3237,178.8906 L3275,178.8906" fill="#E2E2F0" style="stroke:#006400;stroke-width:1.5;"/><text fill="#1D1D1F" font-family="'Inter, sans-serif'" font-size="12" font-weight="700" lengthAdjust="spacing" textLength="25.0488" x="387.4756" y="171.0449">127</text><text fill="#1D1D1F" font-family="'Inter, sans-serif'" font-size="12" font-weight="700" lengthAdjust="spacing" textLength="41.6133" x="1954.1934" y="171.0449">zaehlt</text><text fill="#1D1D1F" font-family="'Inter, sans-serif'" font-size="12" font-weight="700" lengthAdjust="spacing" textLength="25.8984" x="3187.0508" y="171.0449">EWI</text><text fill="#1D1D1F" font-family="'Inter, sans-serif'" font-size="12" font-weight="700" lengthAdjust="spacing" textLength="38.3965" x="3237" y="171.0449">Reset</text><line style="stroke:#333333;stroke-width:2;" x1="25" x2="25" y1="188.8906" y2="193.8906"/><line style="stroke:#333333;stroke-width:2;" x1="75" x2="75" y1="188.8906" y2="193.8906"/><line style="stroke:#333333;stroke-width:2;" x1="125" x2="125" y1="188.8906" y2="193.8906"/><line style="stroke:#333333;stroke-width:2;" x1="175" x2="175" y1="188.8906" y2="193.8906"/><line style="stroke:#333333;stroke-width:2;" x1="225" x2="225" y1="188.8906" y2="193.8906"/><line style="stroke:#333333;stroke-width:2;" x1="275" x2="275" y1="188.8906" y2="193.8906"/><line style="stroke:#333333;stroke-width:2;" x1="325" x2="325" y1="188.8906" y2="193.8906"/><line style="stroke:#333333;stroke-width:2;" x1="375" x2="375" y1="188.8906" y2="193.8906"/><line style="stroke:#333333;stroke-width:2;" x1="425" x2="425" y1="188.8906" y2="193.8906"/><line style="stroke:#333333;stroke-width:2;" x1="475" x2="475" y1="188.8906" y2="193.8906"/><line style="stroke:#333333;stroke-width:2;" x1="525" x2="525" y1="188.8906" y2="193.8906"/><line style="stroke:#333333;stroke-width:2;" x1="575" x2="575" y1="188.8906" y2="193.8906"/><line style="stroke:#333333;stroke-width:2;" x1="625" x2="625" y1="188.8906" y2="193.8906"/><line style="stroke:#333333;stroke-width:2;" x1="675" x2="675" y1="188.8906" y2="193.8906"/><line style="stroke:#333333;stroke-width:2;" x1="725" x2="725" y1="188.8906" y2="193.8906"/><line style="stroke:#333333;stroke-width:2;" x1="775" x2="775" y1="188.8906" y2="193.8906"/><line style="stroke:#333333;stroke-width:2;" x1="825" x2="825" y1="188.8906" y2="193.8906"/><line style="stroke:#333333;stroke-width:2;" x1="875" x2="875" y1="188.8906" y2="193.8906"/><line style="stroke:#333333;stroke-width:2;" x1="925" x2="925" y1="188.8906" y2="193.8906"/><line style="stroke:#333333;stroke-width:2;" x1="975" x2="975" y1="188.8906" y2="193.8906"/><line style="stroke:#333333;stroke-width:2;" x1="1025" x2="1025" y1="188.8906" y2="193.8906"/><line style="stroke:#333333;stroke-width:2;" x1="1075" x2="1075" y1="188.8906" y2="193.8906"/><line style="stroke:#333333;stroke-width:2;" x1="1125" x2="1125" y1="188.8906" y2="193.8906"/><line style="stroke:#333333;stroke-width:2;" x1="1175" x2="1175" y1="188.8906" y2="193.8906"/><line style="stroke:#333333;stroke-width:2;" x1="1225" x2="1225" y1="188.8906" y2="193.8906"/><line style="stroke:#333333;stroke-width:2;" x1="1275" x2="1275" y1="188.8906" y2="193.8906"/><line style="stroke:#333333;stroke-width:2;" x1="1325" x2="1325" y1="188.8906" y2="193.8906"/><line style="stroke:#333333;stroke-width:2;" x1="1375" x2="1375" y1="188.8906" y2="193.8906"/><line style="stroke:#333333;stroke-width:2;" x1="1425" x2="1425" y1="188.8906" y2="193.8906"/><line style="stroke:#333333;stroke-width:2;" x1="1475" x2="1475" y1="188.8906" y2="193.8906"/><line style="stroke:#333333;stroke-width:2;" x1="1525" x2="1525" y1="188.8906" y2="193.8906"/><line style="stroke:#333333;stroke-width:2;" x1="1575" x2="1575" y1="188.8906" y2="193.8906"/><line style="stroke:#333333;stroke-width:2;" x1="1625" x2="1625" y1="188.8906" y2="193.8906"/><line style="stroke:#333333;stroke-width:2;" x1="1675" x2="1675" y1="188.8906" y2="193.8906"/><line style="stroke:#333333;stroke-width:2;" x1="1725" x2="1725" y1="188.8906" y2="193.8906"/><line style="stroke:#333333;stroke-width:2;" x1="1775" x2="1775" y1="188.8906" y2="193.8906"/><line style="stroke:#333333;stroke-width:2;" x1="1825" x2="1825" y1="188.8906" y2="193.8906"/><line style="stroke:#333333;stroke-width:2;" x1="1875" x2="1875" y1="188.8906" y2="193.8906"/><line style="stroke:#333333;stroke-width:2;" x1="1925" x2="1925" y1="188.8906" y2="193.8906"/><line style="stroke:#333333;stroke-width:2;" x1="1975" x2="1975" y1="188.8906" y2="193.8906"/><line style="stroke:#333333;stroke-width:2;" x1="2025" x2="2025" y1="188.8906" y2="193.8906"/><line style="stroke:#333333;stroke-width:2;" x1="2075" x2="2075" y1="188.8906" y2="193.8906"/><line style="stroke:#333333;stroke-width:2;" x1="2125" x2="2125" y1="188.8906" y2="193.8906"/><line style="stroke:#333333;stroke-width:2;" x1="2175" x2="2175" y1="188.8906" y2="193.8906"/><line style="stroke:#333333;stroke-width:2;" x1="2225" x2="2225" y1="188.8906" y2="193.8906"/><line style="stroke:#333333;stroke-width:2;" x1="2275" x2="2275" y1="188.8906" y2="193.8906"/><line style="stroke:#333333;stroke-width:2;" x1="2325" x2="2325" y1="188.8906" y2="193.8906"/><line style="stroke:#333333;stroke-width:2;" x1="2375" x2="2375" y1="188.8906" y2="193.8906"/><line style="stroke:#333333;stroke-width:2;" x1="2425" x2="2425" y1="188.8906" y2="193.8906"/><line style="stroke:#333333;stroke-width:2;" x1="2475" x2="2475" y1="188.8906" y2="193.8906"/><line style="stroke:#333333;stroke-width:2;" x1="2525" x2="2525" y1="188.8906" y2="193.8906"/><line style="stroke:#333333;stroke-width:2;" x1="2575" x2="2575" y1="188.8906" y2="193.8906"/><line style="stroke:#333333;stroke-width:2;" x1="2625" x2="2625" y1="188.8906" y2="193.8906"/><line style="stroke:#333333;stroke-width:2;" x1="2675" x2="2675" y1="188.8906" y2="193.8906"/><line style="stroke:#333333;stroke-width:2;" x1="2725" x2="2725" y1="188.8906" y2="193.8906"/><line style="stroke:#333333;stroke-width:2;" x1="2775" x2="2775" y1="188.8906" y2="193.8906"/><line style="stroke:#333333;stroke-width:2;" x1="2825" x2="2825" y1="188.8906" y2="193.8906"/><line style="stroke:#333333;stroke-width:2;" x1="2875" x2="2875" y1="188.8906" y2="193.8906"/><line style="stroke:#333333;stroke-width:2;" x1="2925" x2="2925" y1="188.8906" y2="193.8906"/><line style="stroke:#333333;stroke-width:2;" x1="2975" x2="2975" y1="188.8906" y2="193.8906"/><line style="stroke:#333333;stroke-width:2;" x1="3025" x2="3025" y1="188.8906" y2="193.8906"/><line style="stroke:#333333;stroke-width:2;" x1="3075" x2="3075" y1="188.8906" y2="193.8906"/><line style="stroke:#333333;stroke-width:2;" x1="3125" x2="3125" y1="188.8906" y2="193.8906"/><line style="stroke:#333333;stroke-width:2;" x1="3175" x2="3175" y1="188.8906" y2="193.8906"/><line style="stroke:#333333;stroke-width:2;" x1="3225" x2="3225" y1="188.8906" y2="193.8906"/><line style="stroke:#333333;stroke-width:2;" x1="3275" x2="3275" y1="188.8906" y2="193.8906"/><line style="stroke:#333333;stroke-width:2;" x1="25" x2="3275" y1="188.8906" y2="188.8906"/><text fill="#1D1D1F" font-family="'Inter, sans-serif'" font-size="11" lengthAdjust="spacing" textLength="6.9985" x="21.5007" y="205.1011">0</text><text fill="#1D1D1F" font-family="'Inter, sans-serif'" font-size="11" lengthAdjust="spacing" textLength="13.9971" x="768.0015" y="205.1011">15</text><text fill="#1D1D1F" font-family="'Inter, sans-serif'" font-size="11" lengthAdjust="spacing" textLength="13.9971" x="2718.0015" y="205.1011">54</text><text fill="#1D1D1F" font-family="'Inter, sans-serif'" font-size="11" lengthAdjust="spacing" textLength="13.9971" x="3168.0015" y="205.1011">63</text><text fill="#1D1D1F" font-family="'Inter, sans-serif'" font-size="11" lengthAdjust="spacing" textLength="13.9971" x="3218.0015" y="205.1011">64</text><?plantuml-src RO_1JiCm343l-GghkuBKZdLmR5fMQHBYC0wSG-jsKLi7EQcGXlXtiZMb0n5VOhyNExQTfdV5Qe0tLNKjcv7gmlI6mR4Ywn6I4_R7gh5HO-zAG-vP3GZHdXpo3LWltrfatKJ_srFJLVBeexnI9BFv2F1XwoE_WauFcbhu503vd--joiiv4yCrSgZkKX_ILvyquU-P02-w9TNFvZgE4oc-H6MeqjQlSXgXuH6F4IWBSgdh0Keaw_Uya7mX7Mg20pQCTdfLY2mM4hI5A5dVHo9VhiLopP8qI0Uqw6RjfF3OkzcSiopT13uF4jdsBaYxr_qvtOHqQlSD?></g></svg>