<svg xmlns="http://www.w3.org/2000/svg" xmlns:xlink="http://www.w3.org/1999/xlink" contentStyleType="text/css" data-diagram-type="TIMING" height="249px" preserveAspectRatio="none" style="width:350px;height:249px;" version="1.1" viewBox="0 0 350 249" width="350px" zoomAndPan="magnify"><?plantuml 1.2026.6?><defs/><g><line style="stroke:#333333;stroke-width:0.5;" x1="20" x2="20" y1="20" y2="215.8906"/><line style="stroke:#333333;stroke-width:0.5;" x1="329.7109" x2="329.7109" y1="20" y2="215.8906"/><line style="stroke:#333333;stroke-width:0.5;stroke-dasharray:3,5;" x1="74.7109" x2="74.7109" y1="20" y2="215.8906"/><line style="stroke:#333333;stroke-width:0.5;stroke-dasharray:3,5;" x1="124.7109" x2="124.7109" y1="20" y2="215.8906"/><line style="stroke:#333333;stroke-width:0.5;stroke-dasharray:3,5;" x1="174.7109" x2="174.7109" y1="20" y2="215.8906"/><line style="stroke:#333333;stroke-width:0.5;stroke-dasharray:3,5;" x1="224.7109" x2="224.7109" y1="20" y2="215.8906"/><line style="stroke:#333333;stroke-width:0.5;stroke-dasharray:3,5;" x1="274.7109" x2="274.7109" y1="20" y2="215.8906"/><line style="stroke:#333333;stroke-width:0.5;stroke-dasharray:3,5;" x1="324.7109" x2="324.7109" y1="20" y2="215.8906"/><line style="stroke:#333333;stroke-width:0.5;" x1="20" x2="329.7109" y1="20" y2="20"/><text fill="#1D1D1F" font-family="'Inter, sans-serif'" font-size="14" font-weight="700" lengthAdjust="spacing" textLength="52.3496" x="25" y="32.9951">Task A</text><line style="stroke:#333333;stroke-width:0.5;" x1="20" x2="78.3496" y1="37.2969" y2="37.2969"/><line style="stroke:#333333;stroke-width:0.5;" x1="78.3496" x2="88.3496" y1="37.2969" y2="20"/><text fill="#1D1D1F" font-family="'Inter, sans-serif'" font-size="12" lengthAdjust="spacing" textLength="49.7109" x="25" y="72.4512">Running</text><text fill="#1D1D1F" font-family="'Inter, sans-serif'" font-size="12" lengthAdjust="spacing" textLength="37.793" x="25" y="52.4512">Ready</text><line style="stroke:#006400;stroke-width:2;" x1="74.7109" x2="124.7109" y1="67.2969" y2="67.2969"/><line style="stroke:#006400;stroke-width:2;" x1="124.7109" x2="224.7109" y1="47.2969" y2="47.2969"/><line style="stroke:#006400;stroke-width:2;" x1="224.7109" x2="274.7109" y1="67.2969" y2="67.2969"/><line style="stroke:#006400;stroke-width:2;" x1="274.7109" x2="324.7109" y1="47.2969" y2="47.2969"/><line style="stroke:#006400;stroke-width:2;" x1="124.7109" x2="124.7109" y1="47.2969" y2="67.2969"/><line style="stroke:#006400;stroke-width:2;" x1="224.7109" x2="224.7109" y1="47.2969" y2="67.2969"/><line style="stroke:#006400;stroke-width:2;" x1="274.7109" x2="274.7109" y1="47.2969" y2="67.2969"/><line style="stroke:#333333;stroke-width:0.5;" x1="20" x2="329.7109" y1="85.2969" y2="85.2969"/><text fill="#1D1D1F" font-family="'Inter, sans-serif'" font-size="14" font-weight="700" lengthAdjust="spacing" textLength="52.1855" x="25" y="98.292">Task B</text><line style="stroke:#333333;stroke-width:0.5;" x1="20" x2="78.1855" y1="102.5938" y2="102.5938"/><line style="stroke:#333333;stroke-width:0.5;" x1="78.1855" x2="88.1855" y1="102.5938" y2="85.2969"/><text fill="#1D1D1F" font-family="'Inter, sans-serif'" font-size="12" lengthAdjust="spacing" textLength="37.793" x="25" y="137.748">Ready</text><text fill="#1D1D1F" font-family="'Inter, sans-serif'" font-size="12" lengthAdjust="spacing" textLength="49.7109" x="25" y="117.748">Running</text><line style="stroke:#006400;stroke-width:2;" x1="74.7109" x2="124.7109" y1="132.5938" y2="132.5938"/><line style="stroke:#006400;stroke-width:2;" x1="124.7109" x2="174.7109" y1="112.5938" y2="112.5938"/><line style="stroke:#006400;stroke-width:2;" x1="174.7109" x2="274.7109" y1="132.5938" y2="132.5938"/><line style="stroke:#006400;stroke-width:2;" x1="274.7109" x2="324.7109" y1="112.5938" y2="112.5938"/><line style="stroke:#006400;stroke-width:2;" x1="124.7109" x2="124.7109" y1="112.5938" y2="132.5938"/><line style="stroke:#006400;stroke-width:2;" x1="174.7109" x2="174.7109" y1="112.5938" y2="132.5938"/><line style="stroke:#006400;stroke-width:2;" x1="274.7109" x2="274.7109" y1="112.5938" y2="132.5938"/><line style="stroke:#333333;stroke-width:0.5;" x1="20" x2="329.7109" y1="150.5938" y2="150.5938"/><text fill="#1D1D1F" font-family="'Inter, sans-serif'" font-size="14" font-weight="700" lengthAdjust="spacing" textLength="51.7891" x="25" y="163.5889">Task C</text><line style="stroke:#333333;stroke-width:0.5;" x1="20" x2="77.7891" y1="167.8906" y2="167.8906"/><line style="stroke:#333333;stroke-width:0.5;" x1="77.7891" x2="87.7891" y1="167.8906" y2="150.5938"/><text fill="#1D1D1F" font-family="'Inter, sans-serif'" font-size="12" lengthAdjust="spacing" textLength="37.793" x="25" y="203.0449">Ready</text><text fill="#1D1D1F" font-family="'Inter, sans-serif'" font-size="12" lengthAdjust="spacing" textLength="49.7109" x="25" y="183.0449">Running</text><line style="stroke:#006400;stroke-width:2;" x1="74.7109" x2="174.7109" y1="197.8906" y2="197.8906"/><line style="stroke:#006400;stroke-width:2;" x1="174.7109" x2="224.7109" y1="177.8906" y2="177.8906"/><line style="stroke:#006400;stroke-width:2;" x1="224.7109" x2="324.7109" y1="197.8906" y2="197.8906"/><line style="stroke:#006400;stroke-width:2;" x1="174.7109" x2="174.7109" y1="177.8906" y2="197.8906"/><line style="stroke:#006400;stroke-width:2;" x1="224.7109" x2="224.7109" y1="177.8906" y2="197.8906"/><line style="stroke:#333333;stroke-width:2;" x1="74.7109" x2="74.7109" y1="215.8906" y2="220.8906"/><line style="stroke:#333333;stroke-width:2;" x1="124.7109" x2="124.7109" y1="215.8906" y2="220.8906"/><line style="stroke:#333333;stroke-width:2;" x1="174.7109" x2="174.7109" y1="215.8906" y2="220.8906"/><line style="stroke:#333333;stroke-width:2;" x1="224.7109" x2="224.7109" y1="215.8906" y2="220.8906"/><line style="stroke:#333333;stroke-width:2;" x1="274.7109" x2="274.7109" y1="215.8906" y2="220.8906"/><line style="stroke:#333333;stroke-width:2;" x1="324.7109" x2="324.7109" y1="215.8906" y2="220.8906"/><line style="stroke:#333333;stroke-width:2;" x1="74.7109" x2="324.7109" y1="215.8906" y2="215.8906"/><text fill="#1D1D1F" font-family="'Inter, sans-serif'" font-size="11" lengthAdjust="spacing" textLength="6.9985" x="71.2117" y="232.1011">0</text><text fill="#1D1D1F" font-family="'Inter, sans-serif'" font-size="11" lengthAdjust="spacing" textLength="6.9985" x="121.2117" y="232.1011">2</text><text fill="#1D1D1F" font-family="'Inter, sans-serif'" font-size="11" lengthAdjust="spacing" textLength="6.9985" x="171.2117" y="232.1011">4</text><text fill="#1D1D1F" font-family="'Inter, sans-serif'" font-size="11" lengthAdjust="spacing" textLength="6.9985" x="221.2117" y="232.1011">6</text><text fill="#1D1D1F" font-family="'Inter, sans-serif'" font-size="11" lengthAdjust="spacing" textLength="6.9985" x="271.2117" y="232.1011">8</text><?plantuml-src TOx1JiCm44Jl-nMhz0fIMhMbnzYXaP1G3v0VS8aRMKdMQEq88SI_Ovgsn2NrNEoPj-DrZQ5tnQh3lNfhQhOzLRbjBQDdHIv4cZou2rNfW-fRNrZoEzLfJ9x8Qxv35-1xfzaSacbwA9tD7uEA4IAOxSSftAo3v2ZSMQ_brLwpOXNqS4rPhZIVYEqgI8m8Rpf3DNu1ul-wu_bD9YeGdmtfU7V4LrEJQi_a8atd0hu1sEvxvp4fbMjG9AWSbY9svU3AsCq7DmV8KYW56eSlFL5O6KfvV6bLVKAP_zqXMvp98PFZASYMKvENT1rrnJz2jhdT_0C0?></g></svg>