<svg xmlns="http://www.w3.org/2000/svg" xmlns:xlink="http://www.w3.org/1999/xlink" contentStyleType="text/css" data-diagram-type="STATE" height="452px" preserveAspectRatio="none" style="width:589px;height:452px;" version="1.1" viewBox="0 0 589 452" width="589px" zoomAndPan="magnify"><?plantuml 1.2026.6?><defs/><g><g class="start_entity" data-qualified-name=".start." data-source-line="11" id="ent0001"><ellipse cx="103.85" cy="32" fill="#222222" rx="10" ry="10" style="stroke:#222222;stroke-width:1;"/></g><g class="entity" data-qualified-name="Ready" data-source-line="11" id="ent0002"><rect fill="#FFFFFF" height="50" rx="12.5" ry="12.5" style="stroke:#E2001A;stroke-width:0.5;" width="64.0918" x="102.8" y="134"/><line style="stroke:#E2001A;stroke-width:0.5;" x1="102.8" x2="166.8918" y1="160.2969" y2="160.2969"/><text fill="#1D1D1F" font-family="'Inter, sans-serif'" font-size="14" lengthAdjust="spacing" textLength="44.0918" x="112.8" y="151.9951">Ready</text></g><g class="entity" data-qualified-name="Running" data-source-line="13" id="ent0004"><rect fill="#FFFFFF" height="50" rx="12.5" ry="12.5" style="stroke:#E2001A;stroke-width:0.5;" width="77.9961" x="99.85" y="261"/><line style="stroke:#E2001A;stroke-width:0.5;" x1="99.85" x2="177.8461" y1="287.2969" y2="287.2969"/><text fill="#1D1D1F" font-family="'Inter, sans-serif'" font-size="14" lengthAdjust="spacing" textLength="57.9961" x="109.85" y="278.9951">Running</text></g><g class="entity" data-qualified-name="Blocked" data-source-line="15" id="ent0007"><rect fill="#FFFFFF" height="50" rx="12.5" ry="12.5" style="stroke:#E2001A;stroke-width:0.5;" width="75.3643" x="251.16" y="7"/><line style="stroke:#E2001A;stroke-width:0.5;" x1="251.16" x2="326.5243" y1="33.2969" y2="33.2969"/><text fill="#1D1D1F" font-family="'Inter, sans-serif'" font-size="14" lengthAdjust="spacing" textLength="55.3643" x="261.16" y="24.9951">Blocked</text></g><g class="entity" data-qualified-name="Suspended" data-source-line="17" id="ent0010"><rect fill="#FFFFFF" height="50" rx="12.5" ry="12.5" style="stroke:#E2001A;stroke-width:0.5;" width="97.8135" x="157.94" y="388"/><line style="stroke:#E2001A;stroke-width:0.5;" x1="157.94" x2="255.7535" y1="414.2969" y2="414.2969"/><text fill="#1D1D1F" font-family="'Inter, sans-serif'" font-size="14" lengthAdjust="spacing" textLength="77.8135" x="167.94" y="405.9951">Suspended</text></g><g class="entity" data-qualified-name="GMN15" data-source-line="23" id="ent0016"><path d="M361.42,11.87 L361.42,28 L326.95,32 L361.42,36 L361.42,52.1356 A0,0 0 0 0 361.42,52.1356 L574.2716,52.1356 A0,0 0 0 0 574.2716,52.1356 L574.2716,21.87 L564.2716,11.87 L361.42,11.87 A0,0 0 0 0 361.42,11.87" fill="#FEFFDD" style="stroke:#181818;stroke-width:0.5;"/><path d="M564.2716,11.87 L564.2716,21.87 L574.2716,21.87 L564.2716,11.87" fill="#FEFFDD" style="stroke:#181818;stroke-width:0.5;"/><text fill="#1D1D1F" font-family="'Inter, sans-serif'" font-size="13" lengthAdjust="spacing" textLength="191.8516" x="367.42" y="28.9369">Nie Blocked &#8594; Running direkt</text><text fill="#1D1D1F" font-family="'Inter, sans-serif'" font-size="13" lengthAdjust="spacing" textLength="116.7017" x="367.42" y="44.0697">immer erst Ready</text></g><!--link *start* to Ready--><g class="link" data-entity-1="ent0001" data-entity-2="ent0002" data-link-type="dependency" data-source-line="11" id="lnk3"><path d="M101.68,41.96 C98.76,55.64 94.62,82.43 100.85,104 C103.86,114.43 106.7643,120.6312 112.6443,129.4412" fill="none" id="*start*-to-Ready" style="stroke:#86868B;stroke-width:1;"/><polygon fill="#86868B" points="115.42,133.6,113.7508,123.8936,112.6443,129.4412,107.0967,128.3347,115.42,133.6" style="stroke:#86868B;stroke-width:1;stroke-linejoin:miter;stroke-miterlimit:10;"/><text fill="#1D1D1F" font-family="'Inter, sans-serif'" font-size="13" lengthAdjust="spacing" textLength="43.4814" x="101.85" y="100.0669">Create</text></g><!--link Ready to Running--><g class="link" data-entity-1="ent0002" data-entity-2="ent0004" data-link-type="dependency" data-source-line="13" id="lnk5"><path d="M135.63,184.4 C136.33,206.42 137.1987,233.6626 137.9087,255.6626" fill="none" id="Ready-to-Running" style="stroke:#86868B;stroke-width:1;"/><polygon fill="#86868B" points="138.07,260.66,141.7776,251.5357,137.9087,255.6626,133.7818,251.7937,138.07,260.66" style="stroke:#86868B;stroke-width:1;stroke-linejoin:miter;stroke-miterlimit:10;"/><text fill="#1D1D1F" font-family="'Inter, sans-serif'" font-size="13" lengthAdjust="spacing" textLength="57.0972" x="138.09" y="227.0669">Dispatch</text></g><!--link Running to Ready--><g class="link" data-entity-1="ent0004" data-entity-2="ent0002" data-link-type="dependency" data-source-line="14" id="lnk6"><path d="M99.59,262.71 C88.55,254.31 77.91,243.67 71.85,231 C61.75,209.89 78.0523,193.0818 98.3023,179.8718" fill="none" id="Running-to-Ready" style="stroke:#86868B;stroke-width:1;"/><polygon fill="#86868B" points="102.49,177.14,92.7666,178.7071,98.3023,179.8718,97.1376,185.4075,102.49,177.14" style="stroke:#86868B;stroke-width:1;stroke-linejoin:miter;stroke-miterlimit:10;"/><text fill="#1D1D1F" font-family="'Inter, sans-serif'" font-size="13" lengthAdjust="spacing" textLength="55.1929" x="72.85" y="227.0669">Preempt</text></g><!--link Running to Blocked--><g class="link" data-entity-1="ent0004" data-entity-2="ent0007" data-link-type="dependency" data-source-line="15" id="lnk8"><path d="M173.38,260.76 C184.02,252.19 195.2,241.93 203.85,231 C246.89,176.57 270.8813,101.8884 281.5513,62.2184" fill="none" id="Running-to-Blocked" style="stroke:#86868B;stroke-width:1;"/><polygon fill="#86868B" points="282.85,57.39,276.6496,65.0422,281.5513,62.2184,284.3751,67.1201,282.85,57.39" style="stroke:#86868B;stroke-width:1;stroke-linejoin:miter;stroke-miterlimit:10;"/><text fill="#1D1D1F" font-family="'Inter, sans-serif'" font-size="13" lengthAdjust="spacing" textLength="145.52" x="258.14" y="163.5669">Delay / Queue / Mutex</text></g><!--link Blocked to Ready--><g class="link" data-entity-1="ent0007" data-entity-2="ent0002" data-link-type="dependency" data-source-line="16" id="lnk9"><path d="M251,47.72 C230.3,56.97 205.05,70.31 185.85,87 C170.61,100.24 160.0595,114.6311 150.9195,129.4911" fill="none" id="Blocked-to-Ready" style="stroke:#86868B;stroke-width:1;"/><polygon fill="#86868B" points="148.3,133.75,156.4223,128.1796,150.9195,129.4911,149.608,123.9884,148.3,133.75" style="stroke:#86868B;stroke-width:1;stroke-linejoin:miter;stroke-miterlimit:10;"/><text fill="#1D1D1F" font-family="'Inter, sans-serif'" font-size="13" lengthAdjust="spacing" textLength="75.499" x="186.85" y="100.0669">Zeit / Event</text></g><!--link Ready to Suspended--><g class="link" data-entity-1="ent0002" data-entity-2="ent0010" data-link-type="dependency" data-source-line="17" id="lnk11"><path d="M167.12,177.92 C180.54,187 195.02,199.25 203.85,214 C237.08,269.56 236.75,294.18 225.85,358 C224.14,367.99 222.5367,373.9088 219.1067,383.0488" fill="none" id="Ready-to-Suspended" style="stroke:#86868B;stroke-width:1;"/><polygon fill="#86868B" points="217.35,387.73,224.2571,380.7092,219.1067,383.0488,216.7672,377.8984,217.35,387.73" style="stroke:#86868B;stroke-width:1;stroke-linejoin:miter;stroke-miterlimit:10;"/><text fill="#1D1D1F" font-family="'Inter, sans-serif'" font-size="13" lengthAdjust="spacing" textLength="56.0054" x="233.44" y="290.5669">Suspend</text></g><!--link Suspended to Ready--><g class="link" data-entity-1="ent0010" data-entity-2="ent0002" data-link-type="dependency" data-source-line="20" id="lnk14"><path d="M157.7,399.19 C115.2,385.23 56.38,358.28 28.85,311 C6,271.77 29.27,246.62 60.85,214 C73.12,201.32 84.5416,192.3007 98.2116,182.9607" fill="none" id="Suspended-to-Ready" style="stroke:#86868B;stroke-width:1;"/><polygon fill="#86868B" points="102.34,180.14,92.6523,181.9146,98.2116,182.9607,97.1655,188.52,102.34,180.14" style="stroke:#86868B;stroke-width:1;stroke-linejoin:miter;stroke-miterlimit:10;"/><text fill="#1D1D1F" font-family="'Inter, sans-serif'" font-size="13" lengthAdjust="spacing" textLength="52.7046" x="29.85" y="290.5669">Resume</text></g><!--link Blocked to Suspended--><g class="link" data-entity-1="ent0007" data-entity-2="ent0010" data-link-type="dependency" data-source-line="18" id="lnk12"><path d="M327.01,52.19 C356.25,69.24 394.43,97.16 411.85,134 C421.34,154.09 419.75,163.23 411.85,184 C377.68,273.8 293.7538,347.2854 244.8838,384.6054" fill="none" id="Blocked-to-Suspended" style="stroke:#86868B;stroke-width:1;"/><polygon fill="#86868B" points="240.91,387.64,250.4905,385.3567,244.8838,384.6054,245.6351,378.9986,240.91,387.64" style="stroke:#86868B;stroke-width:1;stroke-linejoin:miter;stroke-miterlimit:10;"/><text fill="#1D1D1F" font-family="'Inter, sans-serif'" font-size="13" lengthAdjust="spacing" textLength="56.0054" x="398.38" y="227.0669">Suspend</text></g><!--link Running to Suspended--><g class="link" data-entity-1="ent0004" data-entity-2="ent0010" data-link-type="dependency" data-source-line="19" id="lnk13"><path d="M145.17,311.19 C149.4,325.34 155.68,343.25 163.85,358 C169.59,368.38 174.1371,374.954 181.4671,383.834" fill="none" id="Running-to-Suspended" style="stroke:#86868B;stroke-width:1;"/><polygon fill="#86868B" points="184.65,387.69,182.0055,378.2028,181.4671,383.834,175.8359,383.2955,184.65,387.69" style="stroke:#86868B;stroke-width:1;stroke-linejoin:miter;stroke-miterlimit:10;"/><text fill="#1D1D1F" font-family="'Inter, sans-serif'" font-size="13" lengthAdjust="spacing" textLength="56.0054" x="164.85" y="354.0669">Suspend</text></g><?plantuml-src RP1DJiCm48NtFiMetI4gMXO8iK3gNoGML51s81OcdgPM4ZiQZu4AiUK0796JC6dJDeN6YoJplNcUUI6thjAaItZHQPwHZywCVU49cBGBWj2n2ZkLmOME1IVUyKoN29qRnqYd44JS2qXsqJcktfXs1nCvIKio9F9l3Roya3DgmS2Q4JuKmEZFTDra_TJ4aq5ggjFpVdymbEh_Ap-LUZfvXbxl6kQepGgkO4me_afj_jSaEcTT9cnYPNbEbsfRQZVU4M9PyG4R5JxDqTIjMEWLdC5zn8ZolesCxshBspwFQ5a4qzSwvFqK3p5KwCpQhFa-Q3_6swCSu_jQUu0vXbXA0ivBpcIp9ODVR5UH66SMTulzV7tlyZ6MC6SHsB940gJ06qybTq3jzWi0?></g></svg>